<?xml version="1.0" encoding="utf-8"?>
<!-- Generator: Adobe Illustrator 16.0.0, SVG Export Plug-In . SVG Version: 6.00 Build 0)  -->
<!DOCTYPE svg PUBLIC "-//W3C//DTD SVG 1.1//EN" "http://www.w3.org/Graphics/SVG/1.1/DTD/svg11.dtd">
<svg version="1.1"
	 id="svg2606" xmlns:dc="http://purl.org/dc/elements/1.1/" xmlns:cc="http://creativecommons.org/ns#" xmlns:rdf="http://www.w3.org/1999/02/22-rdf-syntax-ns#" xmlns:svg="http://www.w3.org/2000/svg" xmlns:sodipodi="http://sodipodi.sourceforge.net/DTD/sodipodi-0.dtd" xmlns:inkscape="http://www.inkscape.org/namespaces/inkscape" sodipodi:version="0.32" inkscape:version="0.46" sodipodi:docname="Taiwan_ROC_political_division_map.svg" inkscape:output_extension="org.inkscape.output.svg.inkscape"
	 xmlns="http://www.w3.org/2000/svg" xmlns:xlink="http://www.w3.org/1999/xlink" x="0px" y="0px" width="850px" height="1200px"
	 viewBox="0 0 850 1200" enable-background="new 0 0 850 1200" xml:space="preserve">
<inkscape:perspective  sodipodi:type="inkscape:persp3d" inkscape:vp_x="0 : 526.18109 : 1" inkscape:vp_y="0 : 1000 : 0" inkscape:vp_z="744.09448 : 526.18109 : 1" id="perspective2614" inkscape:persp3d-origin="372.04724 : 350.78739 : 1">
	</inkscape:perspective>
<path id="path2462" fill="none" stroke="#B7B7B7" stroke-miterlimit="10" d="M332.053,1008.142l-3.532,6.217l0.981,0.894l1.25,0.356
	l2.68-0.806l0.535-1.069l3.035-3.217l2.855-1.783l0.446-0.981l-0.27-1.071l-1.07-0.535l-0.446-0.894l-0.894-0.716l-1.25,0.091
	l-2.054,0.981l-0.717,0.803l-0.894,0.447l-0.534,0.894L332.053,1008.142L332.053,1008.142z"/>
<path id="path2464" fill="none" stroke="#B7B7B7" stroke-miterlimit="10" d="M95.038,590.071v1.429V590.071L95.038,590.071z"/>
<path id="path2466" fill="none" stroke="#B7B7B7" stroke-miterlimit="10" d="M112.895,583.642l0.715-2.5l1.964-0.714l-0.894,1.431
	l-0.535,2.319L112.895,583.642L112.895,583.642z"/>
<path id="path2468" fill="none" stroke="#B7B7B7" stroke-miterlimit="10" d="M121.645,576.678l2.32-0.355l-0.535,1.786
	L121.645,576.678L121.645,576.678z"/>
<path id="path2470" fill="none" stroke="#B7B7B7" stroke-miterlimit="10" d="M79.145,624.357l-0.18,2.5l2.145-0.896L79.145,624.357
	L79.145,624.357z"/>
<path id="path2472" fill="none" stroke="#B7B7B7" stroke-miterlimit="10" d="M82.895,630.607l-4.285,2.319l-1.607-0.715l0.357,2.32
	l5.355-0.355l4.107-2.5l-0.357-1.25l-2.5-0.355L82.895,630.607L82.895,630.607z"/>
<path id="path2474" fill="none" stroke="#B7B7B7" stroke-miterlimit="10" d="M75.931,585.25l-0.625,1.16l-0.179,0.805l0.804,0.896
	l-1.519,1.428l0.357,1.072l1.07,0.533l0.805,0.717L77,592.662l-0.893,0.447l-0.715,2.144l0.445,1.159l-1.16,0.355h-1.34l-1.07,0.717
	l0.356,0.979l1.429,0.271l1.785,2.319v1.339l-0.535,1.071l-0.981,0.715l-0.714,0.895l-0.982,0.714l-0.981,0.27l-1.785-1.605
	l-1.25,0.444l-0.895,0.717l-0.625,0.979l-1.518,1.34l-0.625,0.895l0.893,0.536h1.34l0.625-0.806h4.019l0.714-0.625l0.894-0.444
	l2.59,0.444l1.16,0.535h1.34l1.16-0.535l-0.445-1.161l-0.715-0.893l-0.357-0.982l-0.089-1.25l1.518-1.429l-1.16-2.854l3.66-3.306
	l-0.355-0.895l-0.982-0.714l-0.179-1.161l0.625-2.145l-0.536-1.158l-0.625-0.806l-0.268-1.069l0.356-0.981l0.982-0.625h2.678
	l2.322-0.625l0.98-0.625l0.18-1.341l-0.715-0.625l-1.072,0.979l-1.072,0.27l-1.25-0.625l-2.143-2.409l0.268-1.161l-0.356-0.979
	l-1.07,0.089l-0.805,0.714l-2.231,4.105L75.931,585.25L75.931,585.25z"/>
<path id="path2476" fill="none" stroke="#B7B7B7" stroke-miterlimit="10" d="M90.752,574.803l-0.981,0.98l0.09,1.161L92.895,579
	l0.625,1.071l0.625-0.625l0.893-2.056l0.894-0.625l2.769,0.092l0.536,1.158v1.342l0.714,0.803l0.446,0.98l2.231,2.321l0.446,1.25
	l0.893,0.179l0.805-0.98l0.179-1.339l2.231-1.25l1.34-0.181l-0.09-1.158l-1.25-1.161l-0.535-0.806l0.804-1.429l-1.429-0.09
	l-1.696-3.125l-0.714-0.179l-0.805,0.534l-2.144-0.625l-0.268-1.07l-1.34-0.18l-1.25,0.535l-0.535,1.071l-1.34,0.269l-2.32-0.269
	l-1.072-0.535l-0.268-0.625L90.752,574.803L90.752,574.803z"/>
<path id="path2478" fill="none" stroke="#B7B7B7" stroke-miterlimit="10" d="M102.984,586.232l-1.43,1.875l1.785,1.694h1.34
	l0.981-0.625l0.09-1.25l1.696-2.055l-0.804-0.535h-1.34l-1.25,0.271L102.984,586.232L102.984,586.232z"/>
<path id="path2480" fill="none" stroke="#B7B7B7" stroke-miterlimit="10" d="M106.288,590.16l-1.16,0.536l-0.356,0.98l0.356,1.07
	l1.071,0.535h1.339l1.25-0.27l0.357-1.16l-0.625-0.894l-1.16-0.625L106.288,590.16L106.288,590.16z"/>
<path id="path2482" sodipodi:nodetypes="csssssssssssssssssssssssssssssssssssssssssssssssssssscsssscsssssssssssssssssssssssssssssssssssssssssssssssssssssssssssssssssssssssssscsssssssssssssssssssssssc" fill="none" stroke="#B7B7B7" stroke-miterlimit="10" d="
	M99.234,599l-2.947,2.5l-1.16,0.357h-1.34l0.625,1.158v1.342l-0.268,1.25l-1.785,1.518l-0.18,1.34L93.163,609l2.411-1.07
	l0.981-0.715l1.43,0.09l0.893,0.625l0.804,0.895l-2.679,2.855l-1.34,0.181l-2.678-0.449l1.518,1.697L96.556,614l1.606-0.179
	l1.161-0.714l4.018,0.089l0.805,1.069l0.445,1.161l-1.339,2.145l-0.179,0.714l1.161,0.805l-0.09,0.981l-1.071,1.069l-1.161-0.089
	l-0.803-0.715l-1.072-0.535l-1.339,0.181l-1.607,3.393l-1.518,1.607l0.625,1.069l2.589,0.27l1.429-0.181l1.786-0.625l1.519-0.089
	l1.606,1.785l1.16-0.269l0.179-1.161l1.071-0.98l0.09-1.25l0.446-1.25l-1.071-0.625l-0.179-0.98l0.893-0.981l0.625-1.16l4.465-3.48
	l1.16-0.181l2.232-2.769l0.356-1.07l0.981-0.805l6.161-0.179l1.875-0.895l0.804,0.625l0.269,1.339l0.625,1.161l1.07,0.714
	l1.25-0.269l0.982-0.536H132l0.535-0.804l-3.125-3.305l-0.803-2.945l0.355-1.071v-1.339l-0.535-1.161L126.02,599l-0.625-2.054
	l-0.715,0.804l-0.356,2.5l-1.25-0.179l-0.625-1.25l-0.804-0.895l0.356-0.805l0.714-0.535l-1.695-1.604l-1.16-0.447l-0.805,0.805
	l-1.695,3.125l-0.982-0.18l-0.893,0.268l-1.52,1.52l-0.268,1.069l-0.714,0.181l-0.09-4.02l0.981-2.145l-1.518,0.18l-0.805,0.536
	l-5.179,0.893l-0.804,0.625l0.089,1.25l0.715,0.982v1.339l-0.536,0.896l-1.25,0.354l-0.804,0.981v2.769l-0.714,0.804l-1.339-0.625
	l-0.982-0.893l0.179-1.786l-1.429-0.18l-0.179-1.25l0.714-1.159l0.09-0.805L99.234,599L99.234,599z"/>
<path id="path2484" fill="none" stroke="#B7B7B7" stroke-miterlimit="10" d="M88.966,611.767l-0.535,1.342l-0.981,0.444l-0.357,1.16
	l0.09,2.59l1.519,0.714l0.446,0.717l0.893,0.803l0.357-0.895l-0.715-0.893l1.16-1.071l-0.714-0.804l-0.268-2.857l-0.895-0.714"/>
<path id="path2486" fill="none" stroke="#B7B7B7" stroke-miterlimit="10" d="M91.288,619.892v1.431l4.375,0.089l0.536-0.803
	l-0.714-0.894l-1.072-0.805l-0.535-0.803l-0.268,0.979L91.288,619.892L91.288,619.892z"/>
<path id="path2488" fill="none" stroke="#B7B7B7" stroke-miterlimit="10" d="M106.409,548.396l-1.895,3.156l0.38,1.644l1.263,0.505
	l1.136-1.77l1.263-1.01l1.643,0.252l1.263-0.631l1.137-1.138l-4.167-2.903l-1.01,0.127L106.409,548.396L106.409,548.396z"/>
<path id="path2490" fill="none" stroke="#B7B7B7" stroke-miterlimit="10" d="M19.284,657.872l-1.39,3.156l1.39,0.884l1.642-0.379
	l1.39-0.884v-1.265l-2.273-1.769L19.284,657.872L19.284,657.872z"/>
<path id="path2492" fill="none" stroke="#B7B7B7" stroke-miterlimit="10" d="M70.802,662.924l0.885,1.896v8.713l-0.38,1.643
	l-1.516,0.631l0.885,1.265l5.557,0.126l0.379-0.886l-0.632-1.389l0.632-1.264l1.642-0.505l1.264,1.389l1.263,0.885l1.515-0.505
	l0.884-1.011h1.896l1.136-0.758l-0.505-1.644l-0.758-1.264l-1.642,0.631l-2.023,2.273l-4.546-2.651l-0.505-1.39v-3.788l-1.012,0.253
	l-1.894-0.126L70.802,662.924L70.802,662.924z"/>
<path id="path2494" fill="none" stroke="#B7B7B7" stroke-miterlimit="10" d="M80.777,703.328l0.252,1.896l1.642,0.126l-1.01-1.389
	L80.777,703.328L80.777,703.328z"/>
<path id="path2496" fill="none" stroke="#B7B7B7" stroke-miterlimit="10" d="M84.313,706.106l-0.506,2.021l-1.011,1.389l1.643-0.505
	l1.768-2.271L84.313,706.106L84.313,706.106z"/>
<path id="path2498" fill="none" stroke="#B7B7B7" stroke-miterlimit="10" d="M123.835,707.622l-0.884,1.895l0.757,1.139v1.39
	l1.137,1.137l0.759-0.127v-1.895l1.263-1.389l0.631-1.265l-1.01-0.884l-1.896-0.128L123.835,707.622L123.835,707.622z"/>
<path id="path2500" fill="none" stroke="#B7B7B7" stroke-miterlimit="10" d="M52.24,720.375l-3.157,1.138l-0.379,1.517l0.379,1.769
	l1.137,0.884v1.896l1.769,2.397l0.632,0.252l0.126-1.769l1.516-1.01l1.516-0.379l0.379-3.662l1.263-1.138l-2.524-2.021
	L52.24,720.375L52.24,720.375z"/>
<path id="path2523" fill="none" stroke="#B7B7B7" stroke-miterlimit="10" d="M804.931,190.928l1.518,0.884l1.263-0.126l0.252-1.643
	l1.771-0.127l1.769,0.253l0.505,1.643l1.644,1.01l-0.632,1.011l-1.644,0.631l-3.661-0.126l-2.021-1.895L804.931,190.928
	L804.931,190.928z"/>
<path id="path2525" fill="none" stroke="#B7B7B7" stroke-miterlimit="10" d="M666.823,901.321V904l2.319,1.607l0.715,2.5v2.678
	l1.071,1.25l2.5,0.355l2.5,3.036l2.5,0.714l1.784-0.355L678.432,914l-0.18-2.143l2.855-4.107v-2.679l-0.534-2.321l-1.606-1.25
	l-2.68,0.18l-2.32-1.069l-5.18,0.894L666.823,901.321L666.823,901.321z"/>
<path id="path2527" sodipodi:nodetypes="csssssssssssc" fill="none" stroke="#B7B7B7" stroke-miterlimit="10" d="M696.644,1115.965
	l1.431,1.965l1.605,1.431h2.679l2.5,0.533l1.25-0.355l0.716-1.964l1.25-1.607l0.355-2.319l-2.321-1.07l-1.605-1.607l-1.965-0.533
	l-4.285-3.75l-0.715-1.967l0.18-2.5l2.5-0.179l-0.18-2.144l-1.43-1.431l-0.355-2.319l1.25-1.431l-1.07-1.604l-9.821,0.178
	l-1.966,0.713h-5.355l-1.605-1.069l-1.605,0.354v1.786l1.964,1.25v7.855l1.07,1.605l2.5,0.895l5,6.25h5.356l2.144,1.431
	L696.644,1115.965L696.644,1115.965z"/>
<g id="g4330" transform="translate(4.6145365,50.433747)">
	<path id="path2643" fill="none" stroke="#B7B7B7" stroke-miterlimit="10" d="M98.488,282.45l-0.827,0.551l-0.644,0.735
		l-2.481-0.367l-0.92,0.46l-0.459,1.012v2.758l-0.46,0.919l-0.092,1.287l-0.827,0.644h-1.379l-0.919,0.459l0.275,1.379l0.644,0.919
		l-0.46,1.013l-0.827,0.826l-1.011,0.367h-0.368l0.644,1.104l2.574,0.184l0.459,1.195l1.287-0.092l2.022-2.666l1.103-0.275
		l1.195,0.275l0.552,0.827l1.011-0.46l0.553-0.92l-0.093-1.285l0.553-0.921l2.665-0.092l1.194-0.367l0.645-0.734l1.471-4.229
		l-0.184-1.194l-3.034-1.839l-0.735-0.826l-0.919-0.46l-1.287-0.275L98.488,282.45L98.488,282.45z"/>
	<path id="path2645" fill="none" stroke="#B7B7B7" stroke-miterlimit="10" d="M70.821,300.925l0.46,1.104l0.645,0.919l-0.368,0.735
		l1.379,0.092l0.919,0.46l0.827-0.552l-0.185-0.645l-1.379-0.092l-0.644-2.114L70.821,300.925L70.821,300.925z"/>
	<path id="path2647" fill="none" stroke="#B7B7B7" stroke-miterlimit="10" d="M69.441,304.694l-0.644,0.827l2.298,0.552l0.734-0.552
		L69.441,304.694L69.441,304.694z"/>
	
		<path id="path2651" sodipodi:nodetypes="csssssssssssssssssssssssscsssssssssssssssssssscssssssssssscssssssssssssssssssssscssssssssscsssssssssssssssssscsssssscsssssssssscsssssssssssscsssssssssssssscsssssssssssscssssssssssssssc" fill="none" stroke="#B7B7B7" stroke-miterlimit="10" d="
		M157.501,264.525l-0.366-1.287l-0.645-0.919v-1.379l-0.644-0.827l0.552-0.644h-1.195l0.092-0.735l-0.919-0.092l-0.734,0.184
		l-0.368-0.644l-1.563,1.747l-0.459-0.92l0.919-0.552l-0.826-0.552l-0.92,0.552l-0.552,0.827l1.012,0.827l0.734,1.011l-0.367,1.104
		l-1.194,0.184l-1.654,1.195l-1.195,0.184l-1.194-0.092l-0.459,0.275l-0.276,0.92l0.46,0.734l0.092,1.286l1.287-1.379l1.011,0.46
		h1.38l-0.093,0.735h-1.379l0.919,0.827l0.46,0.919l-0.827,0.552v1.379l-0.919-0.274l-1.194-1.655l-0.735-0.644l-0.184,0.919
		l0.552,0.919v0.275l-0.92,1.012l-0.919,0.553l-0.552,0.826l-0.92,0.459h-1.379l1.287,1.195l-0.368,0.46l0.553,2.391l-0.275,0.734
		h-0.552l-1.746,1.379l-0.552,0.919l-8.089-1.103l-10.848-7.813l-1.194-0.275l-0.367-0.275l-0.645,0.735l-1.287,0.184l-2.113,2.114
		l-1.195,0.185l-2.021,3.77l2.206,1.286l1.194,0.275l-0.184-0.919l-0.735-0.828l0.919-0.459l2.758,0.093l0.46-1.104l0.919-0.551
		l0.735,0.827l-0.092,1.746l-0.735,0.734l-2.39,0.46l-0.46,1.194v1.839l0.367,0.275l0.734,1.194l0.736,2.391v2.758l0.184,0.735
		l1.563,0.184l0.644,0.735l-0.092,1.286l-1.012,0.368l-0.645-1.747l-0.459,0.919l-2.206,0.276l-0.092,2.298l-0.828,0.645
		l-4.044,0.092l-0.552-0.46l0.092-1.286l-0.827,1.654l-1.103-0.185l-0.276,0.919l1.013,0.735l0.919,0.367l1.653,2.206l1.472,1.194
		l0.552,1.013l2.666,0.184l1.011,0.459l0.552,1.104l1.287,0.46l1.472,0.184l2.021,1.287l0.46-0.828l1.563-0.275l0.367-1.011
		l0.735-0.644l0.551-2.392l3.033-4.318l0.736-0.645l0.643-0.92l0.828-0.643l0.184-0.46l1.194-0.185l0.828-0.552l1.194-0.276
		l0.734-0.643l0.92-0.46l1.286-0.092l2.022-0.827l7.904-0.552l1.472,0.552l1.653,1.379l0.92,0.459h1.379l2.299,0.92l2.39,2.39
		l-0.092,1.104l-0.645,0.827l-0.826,0.552l-0.553,0.184l1.104,0.46h1.379l1.012-0.366l0.827-0.645l1.194-0.275l0.644-0.92
		l2.298-0.552l0.368-1.011l-0.46-0.827l0.276-1.012l0.827-0.367l1.379,0.275l0.644-0.735l0.367-0.827l-1.379-1.654l-0.185-1.012
		l1.84-1.103l1.011-0.092l0.552,0.552l1.011-0.828l-0.366-0.827l0.092-0.919l0.459-0.735l-0.919-0.46h-1.379l-0.275-0.734
		l-0.735-0.735l-0.734-3.4v-2.205l1.471-0.921l0.367-1.103l-0.645-0.735l-2.021,0.735l-0.92-0.275l-0.459-0.92l-0.552-2.298
		l0.184-1.195l-0.644-0.551l-0.92-0.46l-0.184-3.4L157.501,264.525L157.501,264.525z"/>
	<path id="path2655" fill="none" stroke="#B7B7B7" stroke-miterlimit="10" d="M159.799,259.561l-1.104,0.368l0.459,0.459h1.379
		L159.799,259.561L159.799,259.561z"/>
	<path id="path2657" fill="none" stroke="#B7B7B7" stroke-miterlimit="10" d="M166.233,294.674l-0.552,0.552l1.287-0.092
		L166.233,294.674L166.233,294.674z"/>
</g>
<g id="g4313" transform="translate(13.831957,20.350481)">
	<path id="path2671" fill="none" stroke="#B7B7B7" stroke-miterlimit="10" d="M54.703,184.912h5.963l-1.987,3.181l-4.373-0.396
		L54.703,184.912L54.703,184.912z"/>
	<path id="path2673" sodipodi:nodetypes="cssssssc" fill="none" stroke="#B7B7B7" stroke-miterlimit="10" d="M69.809,186.899
		l-3.976,9.54l1.59-0.397l7.553-5.167l-3.975-1.59L69.809,186.899L69.809,186.899z"/>
	<path id="path2675" sodipodi:nodetypes="csssssssssssc" fill="none" stroke="#B7B7B7" stroke-miterlimit="10" d="M49.934,117.735
		l-0.396,4.373l0.795,4.77l-0.795,2.782l6.359,0.795l4.771-1.192l6.359-5.167l-2.782-3.577l-3.18,2.782l-4.372,0.795l-2.387-3.181
		L49.934,117.735L49.934,117.735z"/>
	<path id="path2677" fill="none" stroke="#B7B7B7" stroke-miterlimit="10" d="M69.411,120.12l1.192,2.386L69.411,120.12
		L69.411,120.12z"/>
	<path id="path2679" sodipodi:nodetypes="cssssssssssssc" fill="none" stroke="#B7B7B7" stroke-miterlimit="10" d="M67.821,102.233
		l0.396,9.54l0.795-4.373l3.181-1.987l4.77-0.396l3.578-2.386l2.782,3.181l0.795-1.987l-3.577-5.963L67.821,102.233L67.821,102.233z
		"/>
	<path id="path2681" sodipodi:nodetypes="csssc" fill="none" stroke="#B7B7B7" stroke-miterlimit="10" d="M74.181,81.563
		l-2.385,4.77l1.7,0.716l1.877-1.511L74.181,81.563L74.181,81.563z"/>
	<path id="path2683" fill="none" stroke="#B7B7B7" stroke-miterlimit="10" d="M80.143,92.296l-2.782,2.782l3.976-0.795
		L80.143,92.296L80.143,92.296z"/>
	<path id="path2685" fill="none" stroke="#B7B7B7" stroke-miterlimit="10" d="M245.105,51.553l-0.101,1.49l-0.795,0.896
		l-0.396,1.191l1.191,0.795l4.074-1.292l1.49-2.187l1.192,0.299l1.291-0.396l-0.596-1.095l-1.392-0.496l-1.987-1.789l-1.091-0.199
		l-0.696,1.688l-0.993,1.192L245.105,51.553L245.105,51.553z"/>
	<path id="path2687" fill="none" stroke="#B7B7B7" stroke-miterlimit="10" d="M241.924,47.18l-2.385,2.088l0.199,0.694l4.174,0.299
		l-0.199-1.191L241.924,47.18L241.924,47.18z"/>
</g>
<g id="g4342" transform="translate(920.81618,114.6225)">
	<path id="path4338" fill="none" stroke="#B7B7B7" stroke-miterlimit="10" d="M-679.82,174.754l-0.536,2.5l1.43,1.429l1.606,0.714
		v-2.679l-1.25-1.429L-679.82,174.754L-679.82,174.754z"/>
	<path id="path4340" fill="none" stroke="#B7B7B7" stroke-miterlimit="10" d="M-672.856,179.039l-1.25,2.144l1.786,1.071l1.786-1.25
		l-1.25-1.43L-672.856,179.039L-672.856,179.039z"/>
</g>
<path id="path4401" fill="none" stroke="#B7B7B7" stroke-miterlimit="10" d="M80.903,940.529l-1.43,4.284l3.215,2.856l3.929-1.786
	l1.786-3.93l-3.215-2.145L80.903,940.529L80.903,940.529z"/>
<g id="g4418" transform="translate(84.886708,7.5966231)">
	<path id="path4403" fill="none" stroke="#B7B7B7" stroke-miterlimit="10" d="M-11.461,1006.596l0.357,4.645l3.57-2.145
		L-11.461,1006.596L-11.461,1006.596z"/>
	<path id="path4405" sodipodi:nodetypes="cssssssc" fill="none" stroke="#B7B7B7" stroke-miterlimit="10" d="M7.467,999.096
		l-4.643,0.714v5.356l2.856,3.93h2.5l1.785-3.93l0.715-4.643L7.467,999.096L7.467,999.096z"/>
</g>
<path id="path2421" sodipodi:nodetypes="cssssssssssssssssssssssssssssssssssc" fill="none" stroke="#B7B7B7" stroke-miterlimit="10" d="
	M341.559,632.329l0.506,3.283l3.031,3.029l-2.021,4.548l10.102,1.516l1.01,2.777l2.021,2.776l2.525,1.264l2.522-1.517l1.265-2.524
	l4.545-3.535l2.021,1.769l4.546,1.517l0.759-2.524l3.536-4.293l-2.021-2.021l-0.759-3.028l-3.029-0.759l-1.264-2.524l-2.272-1.517
	l-2.776,1.012l-2.021-1.771l-1.77-2.523l-2.523-1.265l-3.031,0.759l-7.068,5.053l-3.028-0.758L341.559,632.329L341.559,632.329z"/>
<path id="path2531" fill="none" stroke="#B7B7B7" stroke-miterlimit="10" d="M668.595,93.933l-1.25,2.678l-1.25,1.25l-0.355,0.715
	l-1.25,1.429v2.68l-1.785,1.07l-0.356,2.321l0.716,2.321l1.784,1.25l5.716,0.714l3.57,3.393l1.43,2.68l0.179,8.214l-2.679,3.75
	l-1.785,1.606l-0.895,1.965l0.534,5.179l1.071,2.143l2.145-0.179l1.964-1.071l1.25-1.785l1.25-0.179l2.856,1.25l1.605,1.25
	l0.716,1.964v2.68l1.25,2.144l2.319,1.606l2.5,0.179l1.07,4.286l3.75,2.5l10,1.07l2.146-0.894h2.854l0.18-1.785l-4.819-2.321
	l-0.357-2.5l0.18-2.144l-1.25-4.107v-2.32l1.25-1.965l1.786-1.071l5,0.357l1.605-1.07l2.145-0.536l6.784,0.357l0.536-1.429
	l-1.606-0.715l-2.319,0.715l-3.931-1.786l-4.818-3.57l-0.895-1.965l1.25-1.606l-0.355-1.964l-1.431-1.43l1.07-1.25l2.321-4.82
	l-0.535-4.645l-7.68-6.605l0.536-2.322l1.429-1.606l-0.535-1.785l-2.856-2.5l-1.071-1.607l-0.179-5.178l-2.856-2.858v-2.679
	l0.715-1.964v-2.68l-4.644,0.356l-1.965-3.571l-1.431-1.606l-2.5,3.928l-1.964,0.894l-0.894,1.965l-3.75,2.143l-0.896,2.322
	l-1.604,1.07l-2.5,0.18l-1.966,0.893l-3.034,3.571l-0.896,2.321L668.595,93.933L668.595,93.933z"/>
<path id="path2417" sodipodi:nodetypes="csssssssssssssssssssssssssssssssssssssssssssssssssssssssssssssc" fill="none" stroke="#B7B7B7" stroke-miterlimit="10" d="
	M405.957,398.478l-2.021,7.07v3.788l-5.052,10.354l1.77,3.03l2.776,1.013l3.536,4.544l2.777,1.011l2.021,1.769l3.029,0.76
	l5.809-1.013l1.265,3.282l3.282-0.253l1.769-2.021l2.525-1.264l6.313-1.517l2.524-1.265l0.757-3.028v-3.283l-2.776-1.011
	l-1.769-2.272l2.271-1.515l3.283,0.505l2.776,1.263h7.069l6.313-1.516l1.769-2.021h7.576l0.253-11.111l-2.271-1.516l-2.777-1.011
	l-4.293-3.283h-3.535l-4.04,4.798l-2.271,1.515l-6.062,1.768l-3.535,0.254l-2.523-1.264l-1.518-2.271h-7.069l-2.271-1.517h-3.03
	l-2.523,1.769l-5.556-1.769l-2.777-1.768L405.957,398.478L405.957,398.478z"/>
<path id="path3635" sodipodi:nodetypes="ccssssssssscssssssssssssssssssssssssssscssssssssssssssssssssssssssscssssssssssssssssssssssscsss" fill="none" stroke="#B7B7B7" stroke-miterlimit="10" d="
	M765.405,99.073l0.075-1.158l-1.066-1.123l0.5-3.406l-1.779,0.125l-2.375,1.5l-2.155-2l-1.906-0.155l-0.875-0.625v-2.125
	l-1.625-0.406l-0.78,1.406l-1.5,0.375l-0.375-1.5h-1.28l0.5,1.5l1.405,2.03l-1.78,2.25l-2.78,2.031l-1.25,0.125l2.28-2.156
	l-0.78-1.375v-3.155l-1.5-0.125l-1.375-0.75l-1.781-0.25l-2.031-2.031h-3.904l-1.125-0.75l0.26-1.358l-0.43-0.9l-1.81,1.152
	l-1.965,0.715l-1.071,1.606l-2.319,0.535l-1.25,1.607l-4.106,1.785l-2.5,0.18l-1.964,0.714l-1.786,1.25l-4.821,0.536v2.678
	l1.071,1.965l2.32,0.714l1.43,1.607l0.179,2.5l3.036,6.786l2.321,1.605l1.605,2.145l2.32,0.535l1.43-1.25v1.965l1.605,1.785
	l6.965,1.785l5.355,4.644l5.18,0.356l4.645-2.32l2.5-0.18l1.07-1.785l0.714-2.144l-4.643-4.465v-4.821l-0.536-2.143l2.32-0.536
	l2.855-3.035l2.5,0.535l1.786,1.25l0.895,0.179l1.784-2.855l1.43-1.43L765.405,99.073L765.405,99.073z"/>
<path id="path2861" sodipodi:nodetypes="csssssssssscssssscssssssssssscssscsssssssscssssssssssssssssscssssscssssssscscsssssssssssssssssssssssccssssssssssssssssssssssscssssssssscssscssssssssscsssssssssssscsssssssssscsssssssssscsssssssssssssssssssssssssssssssscssssssssscsssssssssssssssssscsssssssssssssssssscsssssssssscssssssssssssscssssssssssssssscsssssssssssssssssssssssssssssssssssscsssssssssssssssssssscsssssssssssssssssssssssssssssssssssssscsssssssssssssssssssssssssssssssssssssssssssssssssssssssssssssssssssssssssscsssssssc" fill="none" stroke="#B7B7B7" stroke-miterlimit="10" d="
	M493.688,1042.666l-3.03,1.011l-2.021,1.77l-3.282,1.263l-2.777-4.798l-3.028-0.758h-4.041l-1.265-2.777l-2.775-1.011l-2.272-1.517
	l-4.293,0.252l-0.506-2.271l0.759-3.283l1.77-1.01l-2.778-1.011l-1.01-2.525l-4.8-2.776l1.77-2.271l2.524-1.263l-0.254-7.576
	l-2.523-1.517l-1.263-2.523h-2.777l-3.787-4.041l-3.536-1.771l4.799-14.646l6.564-1.01l1.264-2.778l-0.759-3.283l-2.776-2.02
	l-2.523-5.307l-4.041-2.522l-0.252-3.03l-1.013-3.03l4.293-3.283v-3.786l-4.039-8.08l-0.506-4.294l-1.77-1.013l-1.01-3.028
	l0.505-3.534l2.776-5.053l-1.263-2.776l1.516-2.272l1.012-2.775l-0.253-3.535l1.011-2.525l2.021-2.021l0.76-3.03l1.769-2.021
	l0.253-1.011l4.041-5.557l0.252-3.535l1.77-2.271l0.253-2.524l3.281,0.505l3.535-1.768l6.063-1.266l3.031-6.313l11.109-0.506
	l2.021-2.272l0.252-3.535l1.77-2.021l0.505-9.853l2.021-2.02l-1.011-2.273v-3.788l-1.012-3.279l-2.523-1.267l-3.283-0.252
	l-2.777-2.522l-0.757-1.519l-1.012-8.333l-3.788-2.522l-2.271,0.757l-0.253-1.264l-2.523-1.265l-1.011-0.252h-3.282l-1.517,2.272
	l-5.051,2.522l-1.77,2.273l-2.776,1.515l-2.778-1.515l-6.313-7.576l-8.586-5.304h-3.788l-3.029,0.758l-3.283,4.798l-3.028,0.758
	l-1.013,1.012h-2.775l-2.777-1.265v-3.788l-1.769-2.02l-3.03-1.266l-3.029,0.759l-2.778,2.021l-3.533,0.253l-6.565,4.546
	l-1.264,0.506l-4.041,3.282l-0.252,1.265l-2.524,3.28l-2.271,1.771l-3.535,0.252l-6.063-1.517l-2.776,1.265h-3.788l-1.518-2.273
	l-4.545-0.252l-1.769-0.758l-2.524,1.263l-1.517,9.852l-1.265,2.522l-0.505,3.283l-1.263,2.776l0.252,15.15l-0.758,1.266
	l0.253,4.546l-1.769,6.815l-1.77,2.273l-2.021,6.061l-0.253,18.186l3.534,4.293l-2.776,16.415l-1.265,2.776l-2.462,2.205
	l-0.188,1.842l-0.75,1.125l-0.125,3.779l-0.5,1.281l0.75,1.75l0.125,9.094l2.906,0.25l2,1.906l-0.125,1.781l-0.875,0.25l1.779,2.375
	l5.031,3.688l0.905,1.25l1.375,0.625l0.625,0.125l-0.155-0.029l0.155,0.404l3.03,1.281l1.155,1.25l1.5,1.031l2.905,1l1.125,1
	l1.531,0.75l1,0.905l1.655,0.75l1.125,1l9.595,5.188l1.125,1.375l1.655,0.531l10.845,8.688l0.905,1.281l2,5.406l-0.375,0.78
	l5.438,3.654l5.813,7.313l0.5,1.53v4.779l1.78,2.906l0.75,3.405l-0.125,1.78l-0.5,1.5l0.125,1.53l4.03,3.406l0.875,1.25l1.281,1.031
	l0.75,1.25l1,3.529l3.28,3.405l-0.875,1.781v1.905l0.375,1.75l1.155,1.25l1.625,4.938l0.125,5.563l1,3.28v1.904l0.655,1.25
	l0.5,2.156l1.25,1.125l0.75,1.25l0.281,1.78l1.375,1.375l0.25,3.563l0.75,1.25l-0.125,1.906l-0.75,1.25l-5.188,1.5l0.25,1.655
	l1.78,0.375l0.5,1.279l-0.125,0.625l0.375,1.625l0.625,1.281l-0.625,1.25l-0.875,1l-2.53,1.531l-0.25,1.625l1,1.156l-3.78,3.529
	v3.655l1.53,0.875v1.906l1.25,1.125l-0.375,1.53l3.905,3.404l0.375,1.375l1.281,1.281l0.75,1.25l0.5,2.531l-0.875,3.031l0.125,5.938
	l-1.125,2.656l0.875,1.125l1.75,0.25l0.905,3.281l1,1.654l3.905,0.375l1.53-2.404l1.125-0.875l0.25-1.656l-0.75-3.156l0.625-1.375
	l1.406-0.625l2-2.156l1.28-0.625h1.875l0.5,1.375l4.188,2.906l0.5,0.125l2.281-0.125l1.625,0.375l0.625,1.281l1.53,0.375
	l1.375,0.875l1.904,0.625l1.906,0.125l3.78,3.813l0.125,1.75l1.875,0.625l0.906,0.781l0.625,1.25l0.125,1.75l2.654,2.531h1.875
	l1.281-0.875l-0.25-1.656l-1.031-0.875l-0.375-1.625l0.125-1.781l-0.5-1.375l-4.904-7.469v-7.313l0.5-1.406l-0.625-1.375l0.5-3.031
	l1-0.375l0.125-1.656l3.404-0.5l1.656-0.625l0.625-1.25l1.5-0.375l1.28-1.029l0.5-1.5l0.125-1.78l0.875-1l1.781-0.125l0.375-3.406
	l3.654-2.405l0.375-1.404l-2-2.5l-0.125-9.346l-1.154-1.654v-1.906l2.654-4.469l1-1.063v-1.53l-1.5-0.625l-2.029-2.154l-0.625-1.625
	l-0.25-4.813l0.25-0.688l0.875-0.063l0.5-0.625l0.719-0.5l0.313-0.719l-0.875-1.375l0.063-3.656l-0.844-1.281l0.25-0.625
	l0.529-0.563l0.313-0.625l0.188-0.75l-0.188-0.781v-1.875l-0.313-0.969l-0.404-0.563l0.063-1.125l-0.625-0.813l-0.313-0.845
	l0.188-1.625l1.405-1.155l0.375-0.625l0.188-0.688l0.063-1.844l-0.25-0.813v-0.688l0.188-0.5l-0.875-1.03l0.75-3.279l1-1.125
	l0.5-1.375l-1-1.156l-0.161-0.914"/>
<path fill="none" stroke="#B7B7B7" stroke-miterlimit="10" d="M823,135.809l-1.406,0.125l-1.125,1.031l-1.156-2.156l-1.375-0.5
	l-0.875-1l-1.469-0.342l-1.813,0.061l-0.841,0.847l-1.689,1.061l-4.03-0.375l-4.938-4.031l-0.375-1.405v-5.688l-0.625-0.75l1.375-1
	l-0.25-0.625l-4.154-4.188l-1.281-3.031l1.531-4.531l1.5-1.031l0.375-1.5l-0.625-1.25l-1-0.905l-0.625-0.875l0.75-1.25l1.25-0.781
	v-1.875l-1.75-0.125l-1.656,0.375l-1,1l-3.406,1.156h-1.905l-5.938-1.281l-1.5,0.625l-1.406-0.625l-4.405-0.125l-2.904-0.875
	l-1.375,0.75l-1.281,1.25h-1.625l-1.03-1.25l0.375-1.625l0.78-1.281l0.625-0.625h-1.905l-1.625,0.625l-1.812-0.001l0.021,1.157
	l-0.895,2.144l-1.431,1.43l-1.783,2.855l-0.896-0.179l-1.785-1.25l-2.5-0.535l-2.855,3.035l-2.321,0.536l0.536,2.143v4.821
	l4.644,4.465l-0.714,2.144l-1.072,1.785l-2.5,0.18l-4.644,2.32l-5.179-0.356l-5.356-4.644l-6.965-1.785l-1.606-1.785v-1.965
	l-1.429,1.25l-2.321-0.535l-1.604-2.145l-2.32-1.605l-3.036-6.786l-0.18-2.5l-1.429-1.607l-2.321-0.714l-1.07-1.965v-2.678
	l4.82-0.536l1.786-1.25l1.964-0.714l2.5-0.18l4.107-1.785l1.25-1.607l2.319-0.535l1.07-1.606l1.965-0.715l1.484-1.112l-2.913-2.094
	l-1.531-0.5l-1.625-1.125l-0.53-1.28l0.655-1.5l2.906-1.406l-0.281-0.75l-1.125-1l1-1.125l1.406-0.781l1.25-1.125l-0.375-1.125
	l-4.531,3.906l-6.313,0.375l-4.938-5.063l-0.25-1.25l1.25-1.28l-0.625-1.25h-2l-1.405-0.625l-2.029-2.031l0.529-3.781l-0.375-1.781
	l-0.654-1.25l-1.125-1l-3.656-5.188l-3.156-1l-1.78-2.281l-1.375-0.75h-1.904l-1.375-0.906l-1.031-1.125l-1.25-0.75l-0.438-0.094
	l-1.344,0.219l-1,1.125l-0.5,1.531h-6.063l-1.906-2.031l-1.125,0.75v1.908l-1.125,0.75l-5.063,0.75l-0.625-1.625l-0.625,0.625
	l-0.25,1.781l-1.404,1.125l-3.406,0.875l-1.375,1.031l-1.655,0.5l-3.531,7.438l-0.625,0.125l-3.688-0.5l-1.25,1l-0.125,1.781
	l-1,1.125l-0.375,1.531l-1.28,2.53l-0.25,1.875l-0.875,1.281l-1.281,0.75l-2.125,2.156l-0.25,1.875l-2.029,3.906l-1.906,0.53
	l-1.125-0.125l0.25,1.125l3.406,3.156l1.904,0.125l3.531,1.656l1.5,2.625l1.405,1.031l1,1.25l2.156,4.438l0.25,7.563l-0.875,0.75
	l-0.25-1.625l-0.781-1.656l-0.25-1.625l-2-2.656l-0.125-1.781l-0.655-1.75l-2.25-2.28l-5.813-3.781h-1.906l-1.125,1l-0.625,2.406
	l-3.688,3.53l-1.625,0.5l-2.779,1.656l-1.5,0.375l-4.188,2.781l-5.156,1.625l-1.279,0.875l-12,0.125l-2.406,2.281l-0.956,1.395
	l1.813,2.485l1.25,0.356l1.25,1.606l5,0.536l9.286,4.464l-0.536,3.572l1.967,1.784l5.179,1.25h5.354l1.25,0.894l1.786,2.144
	l0.536,2.321v0.714l-0.895,1.786l0.355,2.321l1.25,1.429l2.321,1.607l-0.894,1.605l-1.967,1.25l-1.964,0.715l2.145,1.606l0.18,2.144
	l-1.607,1.071l-2.143,0.714l-1.965,3.571l-2.856,1.965l-11.25-0.357l-1.786,0.894l-0.533,2.144l1.069,1.964l-0.536,5l-1.428,1.43
	l-0.895,1.964l1.25,2.322l2.145,0.178l1.605,1.25l-2.145,1.429l-1.25,1.43l-0.894,1.965l0.894,4.285l4.464,2.679l3.396,5.179
	l-1.25,1.607l0.354,2.143l0.181,0.179l2.5,1.606l-1.605,1.25l-4.645,0.894l-0.181,2.146l2.5,0.354l1.606-1.25l1.607,1.606
	l1.783,1.072l2.856,0.714l2.68-0.179l1.964-1.071l5.356-0.357l1.25,0.715l0.355,0.896l1.431,1.429l0.714,1.964l2.855,2.857
	l1.606,0.893l1.606,1.786l0.179,2.5l0.894,2.5l2.321,0.714v2.68l-1.604,1.07l-1.071,1.607l-3.215,2.679l-1.071,1.964l0.357,2.321
	l0.893,1.786v1.071l1.966,5l3.214,3.035l-0.536,1.965l2.5,1.07l0.181,1.786l2.5,0.714l1.43,1.965l1.965,1.43l0.535,5l1.477,0.619
	l4.773,0.272l2.32-1.429l4.645-0.714l5.178-3.395l0.536-2.5l5.895-3.214l2.68-0.179l2.145-0.714l1.07-1.607l1.605-1.25l2.319-0.356
	l1.431-4.285v-2.68l-0.714-2.144l-1.431-1.428l-0.355-2.5l1.966-1.607l0.354-2.321l-0.179-2.5l0.895-1.965l2.144-0.535l1.786-1.07
	l2.5,0.714l2.32-1.786l0.534-2.143l-1.429-1.25l10.535-1.25l3.57-1.785l1.605,1.785l0.715-1.965l2.145-0.715l1.071-1.785
	l1.783-1.606l0.536-1.696l4.821-2.59l2.679-3.214l1.964-1.071l2.322-0.356l7.5,1.07l1.785-0.893l2.5-0.536l-0.18-1.25l0.18-2.143
	l1.429-1.785l0.181-2.145l-0.536-2.32l2.5-3.215l3.036-2.5l2.319-0.356l5.356,0.356l5.894-3.929l1.431-4.286l-4.106-5.893
	l0.893-1.786l0.536-2.143l1.786-1.43l5.178,0.357l2.322,0.893h2.855l1.43-1.605l6.786-4.822l5.354-0.356l6.25-2.32l2.5-0.18
	l3.707,0.691l1.115-0.504l0.775-1.536l1.755-0.12l0.75-1.125l2.781-1.28l0.774-1.317l1.882-0.183l0.687-1.438l0.063-1.467
	L823,135.809z M722.169,134.908l-6.784-0.357l-2.145,0.536l-1.605,1.07l-5-0.357l-1.786,1.071l-1.25,1.965v2.32l1.25,4.107
	l-0.18,2.144l0.357,2.5l4.819,2.321l-0.18,1.785h-2.854l-2.146,0.894l-10-1.07l-3.75-2.5l-1.07-4.286l-2.5-0.179l-2.319-1.606
	l-1.25-2.144v-2.68l-0.716-1.964l-1.605-1.25l-2.856-1.25l-1.25,0.179l-1.25,1.785l-1.964,1.071l-2.145,0.179l-1.071-2.143
	l-0.534-5.179l0.895-1.965l1.785-1.606l2.679-3.75l-0.179-8.214l-1.43-2.68l-3.57-3.393l-5.716-0.714l-1.784-1.25l-0.716-2.321
	l0.356-2.321l1.785-1.07v-2.68l1.25-1.429l0.355-0.715l1.25-1.25l1.25-2.678l2.32-0.709l0.896-2.321l3.034-3.571l1.966-0.893
	l2.5-0.18l1.604-1.07l0.896-2.322l3.75-2.143l0.894-1.965l1.964-0.894l2.5-3.928l1.431,1.606l1.965,3.571l4.644-0.356v2.68
	l-0.715,1.964v2.679l2.856,2.858l0.179,5.178l1.071,1.607l2.856,2.5l0.535,1.785l-1.429,1.606l-0.536,2.322l7.68,6.605l0.535,4.645
	l-2.321,4.82l-1.07,1.25l1.431,1.43l0.355,1.964l-1.25,1.606l0.895,1.965l4.818,3.57l3.931,1.786l2.319-0.715l1.606,0.715
	L722.169,134.908z"/>
<path id="path3690" sodipodi:nodetypes="csssssssssssssssssssssssscsssssscsssssssssssssscsssssssssssssssssscsssssssssssssssssssssssssssscsssssssssssssssssssssssssssssssssssssscsssscsssssssssssssssssssssssssssssssssssssssssssssssssssssssssssssssssssssssssssssssssssscsssssssssssscssssssssssssscsssssssssssscssssssssssssssscsssssssssssssssssssssssssssssssssssscssssssssssssssssssssssssscssssssssssssssssssssssssscssssssssssssssscssssssssssssssssssssssssssssssc" fill="none" stroke="#B7B7B7" stroke-miterlimit="10" d="
	M668.28,248.286l-0.467,1.157l-1.642,0.505l-3.536,0.253l-1.264,0.758l-1.769,2.398l-0.632,5.051l-2.272,3.03l-0.379,1.516
	l-0.631,1.263l-0.38,1.517l-3.408,5.303l-0.253,1.642h-1.769l-1.391,0.633l-1.137,0.884l-0.39,0.711l-0.855,0.921l0.107,0.641
	l1.138,0.759l0.631,1.389l0.127,1.768l0.505,1.391l-1.263,1.136l-0.506,0.253l-0.505,0.758l-1.265,0.758l-1.391,1.516l-0.379,1.642
	l0.633,1.263l0.126,7.323l-0.759,1.77l-1.136,1.389l-1.392,1.01l-1.643,2.525l-1.77,1.39l-0.505,1.264l-1.39-0.127l-3.408,4.925
	l-1.264,0.758l-1.896-0.379l-1.39,2.776l-1.389,0.759l-1.138,2.903l-0.886,1.138l-1.516,1.263l-1.264,2.525l0.099,1.565
	l-0.692,1.019l1.44,1.688l0.894,1.786l0.535,2.143l-0.894,7.145l2.68,2.678l1.964,0.715h4.821l4.105,6.964l1.784,0.895l2.681-0.357
	l1.25-1.606l1.605-1.25l2.321-0.357l1.785-0.893l7.144-0.894l2.145,1.071l1.069,1.786l1.607,1.071l1.273,2.109l12.022,7.7h8.081
	l3.029,1.263l4.041,0.505l8.081,5.557l8.334,1.01l3.028-0.757l-3.028-2.525l0.758-3.029l3.282-0.759l2.271-1.516l2.271,1.011
	l2.021-1.769l-0.758-1.516l-2.021-1.768l0.254-3.283l2.021-0.758l4.293,3.788l4.798,1.516l4.546,3.535l9.092,3.788l7.323,0.505
	l8.081,4.041l4.129,0.499l-0.225-4.042l-0.75-1.25l0.125-3.656l2.53-4.813l0.375-1.5l1.529-2.531l0.5-10.875l0.5-1.625l0.875-1.156
	v-2.125l1-3.53l1.781-2.406l0.5-1.781l2.656-1.625l1-1.156l1.28-2.625l0.125-1.78l4.53-4.281l4.563-1.906h1.875l0.53-0.25
	l-1.405-0.75l-1-1.031l-0.75-1.25v-1.905l-2.531-1.5l-0.5-4.938l1.75-1.125l0.875-1.281l3.281-0.625l2.78-1.75l1.655-0.375
	l0.5-1.655l-0.125-1.5l-0.625-1.781l-0.125-1.781l-0.75-1.125l-0.28-3.531l0.78-1.125l-0.905-1.405l0.655-1.5h1.875l-0.25-1.406
	l-1-0.875l-0.25-0.5l1.5-0.656l-1.25,0.281l-1.78-0.656l-0.125-1.25l-2.405-2.156l0.405-1.625l1.75-0.125l1.53,0.875l0.25,1.781
	l1.75-0.125l1.53-0.781l-3.655-3.655l-3.03-1l-0.405-0.75l-0.5-0.156l-1.625-2.25l-0.125-1.281l-3.656-9.094l-0.125-3.781
	l-0.781-1.125l0.375-0.625v-2.031l-0.5-1.655l0.5-10.22l-2.904-3.155l-0.875-1.5v-1.656l-1.375-1.625l-0.625-3.406l0.125-1.781
	l-1.03-1l0.5-14.03l0.655-2.156v-1.875l1.25-2.781l-0.25-3.656l1-3.03l0.125-1.781l2.404-5.156l0.25-1.781l1.281-2.155l1.5-0.75
	l1-2.906l0.906-1.125l1.375-0.5l3.78-4.438l1.28-0.625l3.155-3.655l0.25-3.531l0.5-1.531l2.781-1.625l1.5-0.375l1.53-2.156
	l1.183-0.945l1.226-0.585l2.5-3.531l0.28-1.875l1.75-1.031l1.781-0.25l1.246-0.505l1.129-1.12l1.655-0.25l1.25-0.781l1.904-0.125
	l2.703-1.237l-3.628-0.712l-2.5,0.179l-6.25,2.321l-5.354,0.355l-6.786,4.822l-1.429,1.605h-2.855l-2.322-0.893l-5.178-0.357
	l-1.786,1.43l-0.536,2.143l-0.894,1.786l4.105,5.893l-1.429,4.286l-5.894,3.93l-5.356-0.357l-2.321,0.357l-3.035,2.5l-2.5,3.214
	l0.535,2.32l-0.179,2.145l-1.43,1.785l-0.181,2.143l0.181,1.25l-2.5,0.536l-1.784,0.893l-7.5-1.07l-2.322,0.356l-1.964,1.071
	l-2.68,3.214l-4.82,2.59l-0.536,1.696l-1.785,1.607l-1.069,1.784l-2.146,0.716l-0.714,1.964l-1.605-1.785l-3.571,1.785l-10.534,1.25
	l1.428,1.25l-0.534,2.143l-2.32,1.786l-2.5-0.714l-1.786,1.071l-2.144,0.534l-0.894,1.966l0.178,2.5l-0.354,2.32l-1.965,1.607
	l0.355,2.5l1.43,1.428l0.715,2.145v2.679l-1.431,4.285l-2.319,0.356l-1.605,1.25l-1.072,1.607l-2.144,0.714l-2.679,0.179
	l-5.895,3.214l-0.536,2.5l-5.178,3.395l-4.646,0.714l-2.32,1.429L668.28,248.286L668.28,248.286z"/>
<path id="path2707" sodipodi:nodetypes="csssssssssssssssssssssssscssssssssssssssssscssssssssssscssssssssssssssssssssssssssssssssssscssssssssssssssssscssssssssssssssscsssssssssssssssssssssssssssscssscssssssssssssssssssssssssssssssssscssssssssssssssssssssssssssssscsssscssssssssssssssssscssssssssssssssssscsssssssssssssssssscssssssssssssssssssssssscsssssssssssssssssssssssssssssssc" fill="none" stroke="#B7B7B7" stroke-miterlimit="10" d="
	M668.359,248.269l-0.546,1.174l-1.642,0.505l-3.536,0.253l-1.265,0.758l-1.769,2.398l-0.631,5.051l-2.272,3.03l-0.379,1.516
	l-0.632,1.263l-0.379,1.517l-3.408,5.303l-0.254,1.642h-1.768l-1.391,0.633l-1.138,0.884l-1.518,1.938l-0.757,0.458l-1.77,0.379
	l-3.661-0.505l-1.516-0.884l-1.265-1.895h-0.885l-0.758-1.011l-0.505-1.516l-1.39-0.505v-3.914l0.759-1.389l0.378-1.77l-1.516-0.757
	l-1.644-0.253l-1.263-0.758l-0.126-3.788l1.01-1.01l0.126-1.896l0.506-1.515l-0.253-1.896l-1.643-0.757h-1.896l-0.631-1.263
	l-0.253-1.77l-0.757-1.263l-1.139-0.884l-2.271-2.904l-2.903-1.389l-3.03,1.01l-1.39-0.505v-3.788l1.138-1.136l0.632-1.264v-3.788
	l-2.146-0.379l0.127-4.42l0.506-1.389l0.884-1.263l0.38-1.643l-1.264-1.263l-0.633-1.516l-1.769-0.379l-1.264-1.263l-1.39-0.506
	l-1.769-0.126l-0.507-0.758h-0.252l-1.643-0.884l-1.011-1.264l-1.517-0.884l-0.38-0.631l-0.126-1.137l-0.884-2.399l-1.517-0.631
	l-2.146-0.379v-1.896l-1.517-0.505l-3.913,1.769h-1.645l-5.682-4.545l-1.391-0.633l-1.138-1.137l-2.021-0.757v-1.39l-1.896-0.252
	l-1.768-0.633l-3.535-2.776l-0.632-0.886l-3.03-1.894l0.379-1.642l1.77-2.778l-0.505-5.556l-1.391-1.011l-11.743-1.01l-0.758-1.516
	l-0.253-1.896l1.011-0.884l-1.389-0.757l-1.263,0.884l-1.645,0.631l-1.895,0.126l-1.644-1.263l-2.021-0.631h-1.896l-1.263-1.39
	l-3.03-1.137l0.126-3.662l0.634-1.515l-1.139-3.031l-0.126-1.768l-1.769-0.126l-2.146-2.146l-3.659-0.253l-4.296,1.263l-2.271-1.515
	l-4.293,2.525l-3.104-0.835l0.462-0.795l1.25-1.031l3.031-4.031l0.625-1.375l1.281-1.281l1.25-0.75l1.78-1.905v-3.656l-0.905-1.25
	l0.125-1.781l3.03-3.781l1.029-2.905l1.125-0.875l2.406-3.531l4.656-4.063l3.938-1.75l1.625-0.25l1.156-1.155l1.5-0.5l2.531-1.625
	l1.25-1.406l1.655-1l1.75-0.5l2.779-2.156l1.531-0.625h2l12.125-3.156l1.531-1.28l3.53-1.625l3.654-3.656l1.656-1.031l2.125-0.125
	l8.344-3.406h1.906l1-1l3.531-0.75l1.53,0.5l2.5,2l2.354,0.077l0.785,1.874l1.25,1.429l1.25,0.357l1.25,1.606l5,0.535l9.285,4.465
	l-0.535,3.571l1.965,1.785l5.18,1.25h5.355l1.25,0.894l1.785,2.144l0.536,2.321v0.714l-0.896,1.786l0.356,2.32l1.25,1.43l2.32,1.606
	l-0.894,1.606l-1.965,1.25l-1.965,0.715l2.144,1.606l0.18,2.144l-1.605,1.071l-2.145,0.714l-1.964,3.571l-2.856,1.965l-11.25-0.357
	l-1.785,0.894l-0.535,2.144l1.07,1.964l-0.535,5l-1.429,1.429l-0.896,1.965l1.25,2.321l2.146,0.179l1.604,1.25l-2.144,1.429
	l-1.25,1.429l-0.895,1.965l0.895,4.285l4.465,2.68l3.395,5.179l-1.25,1.606l0.355,2.144l2.679,1.785l-1.604,1.25l-4.646,0.894
	l-0.179,2.144l2.5,0.356l1.605-1.25l1.606,1.606l1.785,1.071l2.855,0.715l2.68-0.18l1.965-1.07l5.355-0.357l1.25,0.715l0.356,0.894
	l1.429,1.429l0.716,1.964l2.855,2.857l1.606,0.893l1.604,1.786l0.18,2.5l0.894,2.5l2.322,0.714v2.679l-1.606,1.071l-1.07,1.607
	l-3.216,2.679l-1.069,1.964l0.355,2.321l0.895,1.786v1.07l1.965,5l3.214,3.036l-0.535,1.964l2.5,1.071l0.179,1.786l2.5,0.714
	l1.431,1.965l1.965,1.429l0.535,5L668.359,248.269L668.359,248.269z"/>
<path id="path2732" sodipodi:nodetypes="csssssssssssscsssssssssssssssscsssssssssssssssssscssssssssssssssssssscssssssscscsssssssssssssssssscc" fill="none" stroke="#B7B7B7" stroke-miterlimit="10" d="
	M490.579,228.441l0.203,1.052l1.266,0.631h2.021l1.391-0.505l1.137-0.884l1.391,0.505l1.895,2.271l0.506,1.643v1.516l4.869,1.258
	l0.688-0.5l2.021-2.396l0.38-3.662l1.264-2.904l1.642-0.378l1.012-1.516l1.517-0.632l1.137-0.885l0.505-1.515l0.886-1.39
	l5.431-1.264l-0.506-1.389l1.137-1.768l1.516-0.506h1.896l7.07,7.197l1.517-1.011v-3.788l-3.283-11.111l-1.895-2.65l-3.409-2.904
	l-3.661-0.379l-0.126-0.631l-0.506-1.011l-1.391-0.885h-1.896l-7.702-1.894l-1.895-2.652l-0.505-1.389l-1.607-1.159l-1.028,0.771
	l-1.529,0.625l-5.063,6.969l-1.25,1.125l0.625,3.031l-0.25,1l0.5,0.53l1.906,0.125l0.25,1.625l-0.75,1.531l-0.375,3.531
	l-0.781,1.125l-0.125,3.906l-1.875,2.53l-0.5,1.531l1.375,1.125l-0.75,1l-0.625,1.781l-2.281,2.156l-1.779,1L490.579,228.441
	L490.579,228.441z"/>
<path id="path2726" sodipodi:nodetypes="cssssssssssscssssssssssssssssssssssssssssssssssssssssssscsssssssssssscsssssssssssssssssssssssssssssssssssssssssssssssssssscsssssssssssssssscsssssssssssssssssscssssssssssssssssssscsssssssscssssssssssscssscsssssssssssssssssssssssssssscssssssssssssssscssssssssssssssssscssssssssssssssssssssssssssssssssssscssssssssssscssssssssssssssssscsssssscsssssssssssssscssssssssssssssssssc" fill="none" stroke="#B7B7B7" stroke-miterlimit="10" d="
	M620.516,324.936l-1.693,0.898l-0.631,1.39l-1.264,0.758l-5.811-0.126l-1.263,0.631l-5.683-0.126l-0.887-1.01l-0.126-2.146
	l0.253-1.263l-0.632-0.758v-3.788l-0.884-1.264l-1.517-0.884l-1.138-1.263l-0.632-1.517l-2.146-2.396l-0.632-1.516l-1.517-0.759
	l-0.759-1.137l-1.643-0.884l-0.505-1.263l0.253-2.904l-1.138-1.516l-3.662-0.253l-1.516,0.506l-2.65,1.77h-4.294l-1.39,0.757h-1.891
	l-1.264-1.136l-7.575-0.379l-1.392,0.505l-1.515-0.379h-1.896l-2.146,1.895l-3.409,1.39l-3.409-0.759h-5.936v-2.146l-0.884-1.895
	v-2.021l0.758-1.516l2.146-2.272l0.506-1.516l-0.126-1.895l-1.517-2.903l-2.65-2.146l2.021-3.283l1.136-4.167l1.138-1.389
	l0.126-1.769l0.885-1.263l0.379-1.642l-1.39-0.758l-1.138-3.409l-1.895-0.505l-1.391-3.157l-0.885-0.379l-2.021,0.505l-1.518,0.884
	l-2.397-1.894l-0.884-1.517l-1.644-0.379l-1.264-0.884l-2.021-3.156l-1.77-0.253l-1.77-0.757l-0.126-1.769l-1.137-1.264
	l-1.769-0.252l-3.283-2.146l-0.884-1.517l-1.391-1.389l-1.643-2.904l-0.253-1.768l-2.021-0.758l0.379-1.264l0.886-1.389l0.253-1.642
	l1.01-1.264l-1.389-0.758l0.884-1.137l-3.534,0.253l-1.264,1.01l-1.518,0.632l-0.884-1.137h-2.904l-1.515-0.758l-0.989-1.209
	l2.504-3.084l0.38-3.662l1.264-2.904l1.643-0.378l1.012-1.516l1.516-0.633l1.138-0.884l0.505-1.515l0.885-1.39l5.431-1.264
	l-0.505-1.389l1.137-1.769l1.516-0.505h1.896l7.07,7.197l1.517-1.011v-3.788l-3.282-11.111l-1.895-2.65l-3.41-2.904l-3.66-0.379
	l-0.127-0.631l-0.506-1.012l-1.39-0.884h-1.896l-7.701-1.895l-1.895-2.652l-0.506-1.389l-1.576-1.263l0.563-1.501l2.031-2.53
	l0.5-1.781l1-0.875l0.625-3.406l5.563-6.938l-0.75-1.531l-0.375-1.906l5.477-7.893l3.104,0.835l4.293-2.525l2.271,1.516l4.294-1.264
	l3.66,0.253l2.146,2.146l1.77,0.126l0.126,1.768l1.138,3.031l-0.632,1.515l-0.126,3.662l3.029,1.138l1.264,1.389h1.896l2.021,0.631
	l1.643,1.263l1.896-0.126l1.644-0.631l1.264-0.884l1.39,0.757l-1.012,0.884l0.253,1.896l0.759,1.516l11.742,1.01l1.39,1.011
	l0.506,5.556l-1.77,2.778l-0.379,1.642l3.029,1.895l0.633,0.885l3.534,2.776l1.769,0.633l1.896,0.252v1.39l2.021,0.757l8.207,6.313
	h1.643l3.914-1.769l1.518,0.505v1.896l2.146,0.379l1.517,0.631l0.885,2.399l0.126,1.137l0.379,0.631l1.517,0.884l1.011,1.264
	l1.643,0.884h0.252l0.507,0.758l1.769,0.126l1.39,0.506l1.265,1.264l1.769,0.378l0.632,1.516l1.265,1.263l-0.38,1.643l-0.885,1.263
	l-0.505,1.389l-0.127,4.42l2.146,0.38v3.787l-0.631,1.264l-1.138,1.136v3.788l1.39,0.505l3.03-1.01l2.902,1.389l2.272,2.904
	l1.138,0.884l0.757,1.263l0.253,1.77l0.632,1.263h1.896l1.643,0.757l0.253,1.896l-0.507,1.515l-0.126,1.896l-1.01,1.01l0.126,3.788
	l1.264,0.758l1.643,0.253l1.516,0.757l-0.378,1.77l-0.758,1.389v3.914l1.389,0.505l0.505,1.516l0.759,1.011h0.885l1.264,1.895
	l1.517,0.884l3.66,0.506l2.604-0.712l1.438,0.965l0.632,1.389l0.127,1.768l0.505,1.391l-1.264,1.136l-0.505,0.253l-0.505,0.758
	l-1.264,0.758l-1.391,1.516l-0.38,1.642l0.633,1.264l0.126,7.322l-0.759,1.771l-1.136,1.389l-1.392,1.01l-1.643,2.525l-1.769,1.39
	l-0.505,1.264l-1.391-0.127l-3.408,4.925l-1.264,0.758l-1.896-0.379l-1.391,2.777l-1.389,0.758l-1.138,2.903l-0.885,1.138
	l-1.517,1.263l-1.264,2.525l-0.126,1.768L620.516,324.936"/>
<path id="path2781" fill="none" stroke="#B7B7B7" stroke-miterlimit="10" d="M506.442,237.321l1.516,0.758h2.903l0.884,1.137
	l1.518-0.632l1.264-1.01l3.534-0.253l-0.884,1.137l1.39,0.758l-1.011,1.264l-0.253,1.642l-0.886,1.389l-0.379,1.264l2.021,0.758
	l0.253,1.768l1.643,2.904l1.391,1.389l0.884,1.517l3.283,2.146l1.769,0.252l1.137,1.264l0.126,1.769l1.771,0.757l1.769,0.253
	l2.021,3.156l1.264,0.884l1.644,0.379l0.884,1.517l2.397,1.894l1.518-0.884l2.021-0.505l0.884,0.379l1.392,3.157l1.895,0.505
	l1.139,3.409l1.389,0.758l-0.379,1.642l-0.885,1.264l-0.125,1.768l-1.139,1.389l-1.136,4.167l-2.021,3.283l2.65,2.146l1.516,2.903
	l0.127,1.895l-0.506,1.516l-2.146,2.272l-0.759,1.516v2.021l0.884,1.894v2.146h5.936l3.409,0.758l3.409-1.39l2.146-1.895h1.896
	l1.515,0.379l1.392-0.505l7.575,0.379l1.264,1.136h1.895l1.391-0.757h4.294l2.649-1.769l1.517-0.506l3.661,0.254l1.139,1.515
	l-0.254,2.904l0.506,1.263l1.642,0.884l0.759,1.137l1.518,0.759l0.631,1.516l2.146,2.398l0.634,1.516l1.136,1.263l1.516,0.884
	l0.885,1.264v3.788l0.634,0.758l-0.254,1.263l0.101,3.868l-1.785,0.894l-1.965,1.606l-1.429,1.786l-0.18,2.5l-3.395,5.536v2.678
	l-2.144,0.536h-2.681l-1.784-2.5l0.895-1.429l-2.68-1.071l-1.965,0.893l-0.716,2.145l-1.25,1.785l-2.319,0.715l-4.82,6.785
	l-1.966,0.715h-5.355l-1.786,1.25l-0.714,1.964l-0.715,0.179l-1.965,2.144l-0.356,2.5l-2.144,0.536l-3.394,2.855l-2.145,0.536
	l-5-0.536l-4.465,1.607l-5.356,6.786l-2.679,0.179l-1.965-1.072l-3.215-3.035l-0.355-2.5l-1.786-1.25l-2.68-3.929l-1.604,0.357
	h-2.68l-1.966-0.895l-5-0.355l-6.07-2.145l-4.82-0.178l-2.144,0.893l-1.43,1.429v2.68l0.894,1.964l0.356,5l-0.894,1.964
	l-1.786,1.429l-2.144,0.715l-10.356-0.356l-1.964,0.893h-5.356l-5.18-1.605l-3.214-3.036l-1.072-1.964l-1.604-1.25l-11.25-2.145
	l-3.396-2.855l-2.5-0.715l-1.428-1.964l-3.572-1.966l-1.428-1.605l-2.146-0.715l-1.25-1.607l-0.894-0.355l-3.036-0.357l-1.25-1.786
	l-3.214-2.143l-7.5-9.644h-0.356l-0.894-1.786l-4.465-1.784l-2.321-3.75l-0.354-1.966l-3.767-4.719l1.577-0.71l3.78-3.156
	l3.03-3.938l0.625-1.375l5.188-6.813l1.25-3.155l1.405-1.906l9.47-28.156l2.25-2.906l0.125-0.75l1.155-1.25l3.155-0.78l2.656,2.28
	l1.125,1.656l0.375-1.531l-0.375-2.03l2.655-1.625h1.375l1.03,0.25l-0.125-1.656l-1.655-0.75l-1.5-1.125l1-0.875l0.625-3.281
	l3.03-5.313l1.655-0.25l2-2.406l5.563-0.25l4.405-2.031h2.405l3.906,1.406l1.03,1l2.25,0.5l1.28-0.75l-0.75-1l-1.905-0.25
	l-1.5-0.656l-0.78-1.625l-1.75-0.25l0.125-1.781l1-1.125l1.53-0.75l5.53-4.688l0.53-1.625l0.875-1.156l0.375-1.5v-1.906l1.25-2.78
	l1.281-1.125l0.875-1.281l1.934-0.843l0.467,0.979l1.266,0.631h2.02l1.392-0.505l1.137-0.884l1.391,0.505l1.896,2.272l0.505,1.642
	v1.516l4.041,1.138L506.442,237.321L506.442,237.321z"/>
<path id="path2785" sodipodi:nodetypes="cssssssssssssssssssssssssssscsssssscssssssssssssssssssssssssssssssssscsssscsscssssssssssssscsssssssssscssssssssssssscsssssssscssssssssssssssssscsssssssssssssscsssssssssssssssscssssssssssssssscssssssssssssscssssssssssssssc" fill="none" stroke="#B7B7B7" stroke-miterlimit="10" d="
	M303.022,522.437l6.313,2.271l3.787,0.254l5.811,1.771l16.162-0.76l2.776-1.011l14.646,0.252l2.524-1.263l5.052,2.778l0.757,1.263
	l4.294,0.505l8.081,4.041l6.313,1.516l7.323-0.252l3.029-0.759l30.559,5.052l5.81-1.769l2.021-1.769l1.264-2.524v-3.283
	l-2.021-0.505L425,529.509h-3.281l-2.524-1.264l-7.324-7.829l0.253-2.271l1.265-2.525l-1.77-2.021l1.517-2.524l0.505-3.283
	l1.265-2.523l1.262-9.599l-0.505-2.775l0.505-2.272l-1.01-5.556l1.517-2.272l2.021-1.768l1.264-2.525l0.252-3.536l-1.263-2.775
	l-1.769-2.021l-0.506-0.253l0.253-3.788h7.574l3.995-2.264l-5.76-4.783l-1.071,0.714l-3.57,0.357l-1.605-1.43l-2.5-0.181
	l-1.43-6.964l0.894-1.965v-2.856l-1.785-1.429l-1.605-2.145v-5.355l-0.356-0.895l-1.605-1.25h-2.5l-7.5-2.145l-2.68-0.179
	l-1.965-1.071l-2.144-0.535l-1.606-1.25l-1.964-0.894l-1.43-2.321h-0.535l-1.785-1.25l-1.25-1.605l0.179-2.5l1.25-1.606
	l-3.215-3.394l-0.355-2.679l-1.07-2.679l-0.356-2.321l-2.144-3.393l-4.425-1.973l-1.52,0.373l0.5,1.5l0.656,0.875l-1.531,0.781
	l-3.25,4.156l-0.029,0.125l-2.655,4.281l-1.25,0.78l-5.563,0.125l0.25,1.5l1.531,1.281l-0.125,3.656l-1.031,0.875l-0.625,1.375
	l-0.375,1.78l-0.875,1.25l-0.125,3.813l-0.125,0.375l-1.029,1.5v1.906l0.625,1.25l-0.25,1.905l-1.375,1.25l-3.03,1.155l-0.75,1.75
	l-2.281,2.405l-0.25,3.531l-0.625,1.405l-2.656,0.5l-1.404,1.125l-1.625,0.25l-2.405,1.78l-1.375,0.5l-0.375,1.625l-4.063,3.03
	l-0.75,3.031v2.155l-0.875,1.53l-0.25,1.625l-1.279,0.875l-0.625,3.28l-2.405,0.156l-1.875-0.406l-1.406,1.156l-1,4.904l0.375,1.156
	h3.781V480l-4.781,7.188l-0.25-0.125l-0.406,2.029l-0.875,1.125l-0.375,1.531l-1,1l-1.278,4.813l-2.125,2.375l-0.531,1.845
	l-1.875,2.53l-0.625,1.5l-0.906,1.03l-0.25,2.188l-1.25,0.655l-1.125,1l-1.405,0.75l-0.875,1.28l-1.404,0.75v1.375l0.904,1.281
	l-0.654,0.5h-1.875l-0.875,1.25l-0.281,3.655l-0.375,1.029"/>
<path id="path2792" sodipodi:nodetypes="cssssssssssssscsssssssssscssssssssssssscssscsssssssssssssssssssssssssssssssssssssssssssssssscssssssssssssssssssssssssscssssssssssssssssssssssssssssssssssscsssssssssssscssssssssssssssssssssssssssscsssssssssssssssssssssssssssscsssssssssscssssssssssssssssssssssssssscssssssssssssssssssssssssssssssscsssssssssssssssssssssssscsssssssssssssssssssscscsssssssssccssssssssssssssssssssssssssssscssssssssssssssssssssssssssssssssssssssssssssssssssssc" fill="none" stroke="#B7B7B7" stroke-miterlimit="10" d="
	M372.574,403.89l4.438,1.969l2.145,3.393l0.355,2.321l1.07,2.679l0.356,2.68l3.215,3.393l-1.25,1.605l-0.18,2.5l1.25,1.606
	l1.785,1.25h0.535l1.43,2.321l1.965,0.894l1.605,1.25l2.145,0.535l1.965,1.071l10.179,2.319h2.5l1.605,1.25l0.356,0.896v5.354
	l1.606,2.146l1.784,1.43v2.855l-0.894,1.965l1.43,6.964l2.5,0.18l1.604,1.431l3.571-0.357l1.071-0.714l5.714,4.821l8.93,3.214
	l2.145-0.535h5.355l2.5,0.535l1.785,1.605l2.145-0.18l4.284-1.429l6.431-6.966l3.75-9.819l3.215-3.215l4.464-1.25l1.25-1.605
	l-0.354-6.607l3.75-7.5l1.606-1.07l2.321,0.714l1.069,1.605l4.646,0.895l1.604,1.43v5.356l1.071,0.535l0.715-1.605l1.43-1.25
	l0.894-1.786l1.071-4.286l1.605,1.431l0.356,0.536l2.854,1.429l2.5,0.354l2.5-0.533l6.071-5.181l2.321-0.355l1.429,1.25l2.321,0.536
	l5.179-0.181l1.785-1.069l2.68-2.681l1.964-6.251l1.431-1.429l2.5-0.536l4.285,0.536l1.605-1.071h4.106l3.929-1.965l1.25-1.964
	l1.965-1.25l1.25-1.606l1.785-1.071l1.25-1.964l0.536-2.145l1.785-0.893l10.535-0.179l1.43-1.25l1.25-1.965l0.714-1.965l2.5-0.179
	l1.25-1.606l1.606-1.07l1.965,0.893l1.25,1.429l4.285,1.25l0.894-1.785l1.786-1.071h2.679l4.106-1.786l1.604,1.072l2.5,0.893
	l1.965-0.715l1.25-2.143l0.535-2.144l2.321-3.75h0.894l3.216,2.321l1.069,1.606l4.646,1.071h2.679l1.071-1.606l4.819,0.535
	l1.25,1.25l6.431,1.785l1.785-1.429l0.894-1.785l-0.179-2.5l3.75-1.606l1.069-1.607l2.681,0.179l1.429-1.25l0.536-2.32l-0.895-4.644
	l1.25-1.965l2.32-0.893l1.606-1.071l1.785-4.107l1.43-1.605h2.679l1.785-1.25l1.429-1.786l2.146-4.286l0.715-7.321l0.895-1.964
	l2.319-1.25l1.25-1.459l-1.25-2.112l-1.605-1.07l-1.07-1.786l-2.144-1.071l-7.145,0.894l-1.786,0.893l-2.319,0.357l-1.606,1.25
	l-1.25,1.606l-2.68,0.357l-1.785-0.895l-4.106-6.964h-4.819l-1.966-0.715l-2.679-2.678l0.895-7.145l-0.536-2.143l-0.895-1.786
	l-1.25-1.428l-0.389-0.216l-1.732,0.905l-0.631,1.389l-1.263,0.759l-5.811-0.126l-1.264,0.631l-6.521-0.232l-0.072,0.818
	l-1.785,0.894l-1.965,1.606l-1.43,1.786l-0.18,2.5l-3.394,5.536v2.678l-2.145,0.536h-2.68l-1.785-2.5l0.895-1.43l-2.68-1.07
	l-1.965,0.893l-0.715,2.145l-1.25,1.785l-2.32,0.715l-4.82,6.785l-1.965,0.715h-5.355l-1.786,1.25l-0.714,1.964l-0.715,0.179
	l-1.965,2.144l-0.356,2.5l-2.144,0.535l-3.395,2.856l-2.145,0.536l-5-0.536l-4.464,1.606l-5.356,6.786l-2.68,0.18l-1.964-1.072
	l-3.216-3.035l-0.354-2.5l-1.786-1.25l-2.68-3.929l-1.605,0.356h-2.679l-1.966-0.894l-5-0.356l-6.07-2.144l-4.821-0.178
	l-2.143,0.893l-1.43,1.429v2.68l0.894,1.964l0.356,5l-0.895,1.964l-1.786,1.429l-2.143,0.715l-10.357-0.356l-1.964,0.893h-5.355
	l-5.181-1.605l-3.214-3.036l-1.072-1.964l-1.604-1.25l-11.25-2.145l-3.396-2.855l-2.5-0.716l-1.428-1.964l-3.572-1.965l-1.428-1.605
	l-2.145-0.715L442,352.83l-0.894-0.356l-3.036-0.356l-1.25-1.786l-3.214-2.143l-7.5-9.644h-0.356l-0.894-1.786l-4.465-1.785
	l-2.321-3.75l-0.354-1.965l-3.618-4.728l-1.727,0.424l-0.25,2.281l-9.095,12.625l-1.905,4.655l0.25,3.813l-0.125,0.5l-1.25,1.625
	l-0.53,1.406l-2.75,1.25l-1.031,1.78l-4.655,3.156l0.125,1.375l0.5,1.156l0.125,2.125l-0.875,1.031l-2.425-0.781l2.8,1.281l0.5,1.25
	l-1,1.405l-0.905,0.75l-2.25-2.905l-0.905,0.5l-1.125,1.25l-2.155,1.155l0.125,1.75l-0.75,1.281l-2.781,1.625l-0.875,1.406
	l4.156,5.688l-0.125,1.625l-0.875,1.281l-0.375,1.5l-1.031-1.906l0.156-1.625l-1.531,1.625l-1.5-0.125l-0.405-1.875l0.905-1.78
	l-0.125-1.75l-1.28,1.25l-2.25,6.438l1.625,1.281l0.625,1.375l0.625,0.5l0.125-0.25l1.78,1.125v1.906l-0.625,1.53l-3.905,5.656
	l-1.155,0.906l-1.5,3.781L372.574,403.89L372.574,403.89z"/>
<path id="path2812" sodipodi:nodetypes="csssssssssssssssssscssssssssssssssscsssssscssssssssssssssssssssssssssscssssssssssssscsssssssssssssssssssscsssssssssssssssssssssssssssssssssssssssssssssssssssscssssssssssssssssssssssssssssssssssssssssssssssscssssssssssssssssssssssssssssssc" fill="none" stroke="#B7B7B7" stroke-miterlimit="10" d="
	M444.444,595.927v-3.028l-2.271-2.021l-3.283-0.505l-1.011,2.777l-2.777,0.506l-3.281-0.76l-0.759,3.03l-3.029,0.505l-3.536-0.252
	l-2.271-1.517l-1.518-2.776l-0.757-3.031l-4.799,3.536l-0.252-7.322l2.021-5.81l0.254-0.253l1.769-4.041l0.505-3.282l-0.252-3.534
	l-1.517-2.525l-0.252-7.322l0.757-3.028l2.776,0.505l0.507-7.071l-5.053-10.858l-20.708-3.028l-3.788-1.518l-2.021-0.253
	l-10.354,1.011l-14.396-5.557l-4.294-0.505l-0.757-1.263l-5.052-2.778l-2.524,1.263l-14.646-0.252l-7.574,2.021l-11.364-0.253
	l-5.811-1.771l-3.786-0.253l-6.445-2.205l-3.912,0.068l-1.25-0.656l-1.406-0.25l-0.5,1.531l-1.75,0.125l-6.063,10.844l-0.125,0.656
	l-2.156-0.125l-1.281,0.75l-2,2.405l-0.625,1.625l-0.25,3.78l-1.03,1.155l-0.25,1.625l1.655,2.406l-0.25,1.781l-1.655,2.375
	l-3.156,0.125l-0.375,1.529v1.875l-2.156,1.155v2.406l-0.125-0.125l-0.5,0.25l-0.375,1.625v1.905l0.5,1.375l1.906,0.125l1.375,2.03
	l-2.281,2.78l-1.375,2.781l-0.375,1.5l-1.906,3.154l-1,3.531l-1.28,1.905l-2.625,7.438l0.25,7.47l-0.375,1.5l0.125,1.405l1.75,0.875
	l-0.125,1.655l-1.5,0.625l-2.156,1.625l0.5,2.155l1.125,0.625l1.531,0.25l0.125,1.906l-1,1.25v3.779l1.25,0.906l2.03,2.78
	l1.375,1.125l-1.25,0.75l-0.905,1.656l-1.75,0.125l-0.5-1.406l-1.031-0.875l-1.5,0.875l-2.215,2.533l3.854,0.13l5.81,2.271h3.788
	l1.516,2.272h3.788l2.777-1.264l6.313,2.271l3.788,0.506l2.273-1.769l1.768-2.271l0.251-3.536l-0.758-3.028l2.021-2.021h3.282v3.282
	l3.535,1.264l1.012-2.776l4.798-2.777l0.758-3.534l1.77-2.021l6.313-2.525l2.778,1.516l1.768-6.062l1.517-2.524l4.041,0.254
	l2.523-1.265l1.012-3.03l5.81-1.769l1.011-2.776l2.271-1.77l1.769-2.271l2.778,1.265l2.271,1.768l2.778,1.012l5.81-2.271h7.574
	l5.306-2.776l5.052,1.264l1.516,5.052l4.293,3.534l1.517,2.271l2.523,1.518l3.536,0.253l2.271,1.769l3.028,1.011l13.892,1.518
	l2.776-1.518l1.77-2.021l5.557,0.253l-0.505,3.788l2.021,3.282l2.021-2.021l3.281-0.758l2.021,2.021l3.03-0.253l2.777-1.011
	l3.535,0.253l2.776,1.517l3.535,0.505l1.263-2.524V603.5l-0.757-3.03l-1.516-2.271L444.444,595.927L444.444,595.927z"/>
<path id="path2843" sodipodi:nodetypes="csssssssssssscsssscssssssscsssssssssssssssssssssssssssssscsssssscssssssscsssssssssscsssssscsscssssssssssssssssscsssssssssssssssscssssssssssssssssssssssssssscssssssssssssssssssssscssssssssssscsssssssssssscssssssscsssssssssssscssssssssssssssssssssssssssscssssssssssssssssssssssssssssssssssssssccsssssssssssssssscsssssssssssssssssssssssssssssssssssssssssssssssssssssssssssssssscssssssssssssssssssssssssssssssssssssssssssssssssssssssssssssssssscsssssssssssssssssssssssssssssssssssssssssssscssssssssssssssssssssc" fill="none" stroke="#B7B7B7" stroke-miterlimit="10" d="
	M673.821,654.957l-3.354-0.946l-2.272-1.769l-3.03-0.758h-3.787l-2.776,1.01l-4.294,3.536l-7.322,13.132l-0.253,0.252l0.506,4.546
	l2.021,2.273l3.281,1.768v0.253l-12.122,18.438l-0.505,8.839l-1.769,2.271l-2.271,1.518l-1.263,2.523l-1.517,6.063l-2.271,1.769
	v3.788l-1.517,2.777l-0.252,2.776l-3.03,5.811l-4.294,3.535l-1.01,2.776l0.758,3.534v11.364l-1.011,2.776l-9.851,1.517l-2.523,1.769
	l-2.021-0.252l-0.253-3.536l-1.769-3.281l-2.021-1.771l-4.545-0.252l-1.012-0.758l-1.77-2.272l-3.028-1.011l-2.525-1.516v-2.777
	l-3.787-5.304v-4.293l-1.264-2.777l-1.77-2.271l-5.051-3.283l-5.305,2.523l-0.505,1.265h-1.013l-2.775-1.265l-1.264-2.523
	l-3.534-4.04l-3.536-0.253l-5.304-3.283h-4.294l-1.265-2.523l-0.757-0.759l-3.788-9.092l0.252-3.788l-3.788-4.798l-0.758-2.524
	l0.758-3.028l-0.252-3.536l-15.404-10.606l-3.028-0.758l1.01-3.535l1.77-2.522l3.281-1.014l-0.505-2.271l1.517-2.271l3.282-0.508
	l1.517-2.271v-7.071l-2.271-1.515l-0.506-1.645l1.265-1.137l3.029-0.758l3.03-2.021l3.028-0.757l0.76-3.536l-1.013-3.028
	l-2.271-1.77l1.769-2.021l0.759-3.283l2.021-2.272l2.271-1.516l0.759-3.03l2.271-1.515l3.536,0.252l2.777-1.264h3.788l1.263-0.507
	l2.524,1.519l3.029,0.757l4.799-4.04v-7.576l0.76-3.028l2.271-1.518l-2.271-6.313l2.522-1.266l3.788,1.012l2.777-1.265l1.516-2.271
	l3.283-1.519l4.545-0.252l3.788-8.334l1.263-10.354l1.266-2.525v-3.788l2.021-5.557v-9.345l-2.523-2.271l-0.253-3.536l0.759-2.775
	l-8.081-5.811l0.253-3.535l3.283-0.758l3.028-2.271v-1.517l-0.759-3.029l0.505-3.535l2.273-1.517l1.01-3.282l0.253-3.787
	l1.011-3.029l2.021-2.525l0.252-3.788l2.271-2.271l3.029-0.759l-0.505-5.558l-1.769-3.029l4.293-3.788l-0.253-3.028l-1.011-3.283
	v-3.788l0.759-2.02v-7.576l-2.021-2.525l-1.011-0.253v-3.535l6.063-12.88l0.252-7.322l2.272-2.271l2.524-1.263l1.516-2.525
	l2.524-1.263l2.021-3.535l0.758-2.525l0.252-3.535l-1.515-2.271l-3.535-0.505l-1.011-2.778l-1.771-2.021l-3.786-1.265l-0.76-1.011
	l-0.252-6.313l2.777-6.565l3.029-0.758l2.021-1.769l2.778-1.263l3.787-3.788h3.788l1.516-2.272l-1.75-5.597l1.993-1.549l0.893-1.785
	l-0.179-2.5l3.75-1.607l1.07-1.606l2.68,0.179l1.429-1.25l0.536-2.321l-0.895-4.643l1.25-1.965l2.321-0.894l1.605-1.07l1.785-4.107
	l1.43-1.606h2.68l1.784-1.25l1.43-1.785l2.145-4.286l0.715-7.321l0.895-1.964l2.319-1.25l1.276-1.461l12.021,7.7h8.081l3.029,1.263
	l4.041,0.505l8.081,5.556l8.334,1.011l3.029-0.758l-3.029-2.524l0.757-3.03l3.283-0.758l2.271-1.516l2.271,1.011l2.021-1.77
	l-0.758-1.515l-2.021-1.768l0.254-3.283l2.021-0.758l4.293,3.788l4.799,1.516l4.546,3.535l9.092,3.788l7.323,0.505l8.081,4.041
	l4.153,0.493l-0.125,1.275l-0.625,1.25l-1.5,0.656l-0.905,1.5l-2.25,2.031l-2.655,3.905l-0.125,5.563l-1.156,0.875l-1.125,2.656
	l-1.5,0.625l-0.78,1.905l-0.25,0.125l-3.531,0.375l-3.029,5.438l-1.25,1l-1.656,0.25l-3.28,2.906l-1.5,0.375l-0.905,1.125
	l-1.25,0.78l-3.905,5.281l-1.031,3.281v5.688l2.406,4.313l-0.75,0.75l-0.5,5.188l-0.25,0.5l-0.375-0.25l-1.406,2.438l-1.375,0.47
	l-3.219,3.721l-1.531,0.813l-4.344,4.688l-0.625,1.375l0.125,11.875l0.625,1.25l0.5,3.28l7.188,7.47v1.875l-1,3.405l-1.405-0.375
	l-0.375,1.654l0.655,1.25l-1.53,0.5l-1.125,2.531h1.625l-0.75,3.031l-1.905,0.125l-0.75-1.125h-1.5l-1.031,0.875l-0.625,1.654
	l-1.125,1.125l-1.03,3.03l1.405,3.031l0.125,5.563l-1,3.405l-0.125,5.281l-0.53,1.656l-0.125,5.563l-0.625,1.25l-0.375,3.406
	l-1.906,4.313v1.875l-0.625,1.404l-0.25,1.625l-1.875,3.938l-0.279,1.75l-3.281,4.813l-0.625,2.125v10.5l0.5,1.375l-1.375,6.438
	l-3.53,5.438l-1.655,1.125v1.781l-0.625,1.375l-0.125,1.781l0.875,0.625l0.75,2.53l-0.875,1.125l-0.25,1.654l-0.625,1.25
	l-0.875,6.938l-0.905,1.029l0.125,1.25l0.78,1.155l-1.03,1.125l-1.5,0.625l-0.5,3.406l-1.281,1.531l-0.125,12.75l-0.875,1.75
	l-0.125,3.938l-0.875,3.031l-1.405,1.25l-0.375,1.656l-1.625,2.375l-0.156,1.903l-1.25,3.281l-0.125,3.656l-0.875,1.406l-0.25,2.125
	l0.5,0.375l0.625,1.653v3.781l1.656,2.531l-0.125,3.656l-0.531,1.528l-1,1.125l-1.5,0.625l-1.779,0.125l0.375,0.5l1.654,1.031
	l-0.779,1.5v1.906l-0.875,3.281v1.903l-0.625,1.5L673.821,654.957L673.821,654.957z"/>
<path id="path2425" sodipodi:nodetypes="csssssssssssssscsssssssssssssssssscsssssssssscsssssssssssssssssssssscsscsssscsssssssssssssssscssssssssssssssssssssssssssscssssssssssssssssssssscssssssssssscsssssssssssscssssssscsssssssssssscsssssssssssscssssssssssssssssssssssssssssssssssscssssssssssssssssssssssssscssssssssssssssssssssssssssssssssssssssssssssssssccsssscsssssssssssssssssssssssssssssssssz" fill="none" stroke="#B7B7B7" stroke-miterlimit="10" d="
	M416.41,537.843l5.052,10.858l-0.505,7.071l-2.777-0.507l-0.757,3.03l0.252,7.322l1.517,2.523l0.252,3.536l-1.516,6.063
	l-0.759,1.264l-0.253,0.253l-2.021,5.81l0.252,7.322l4.799-3.534l0.757,3.029l1.518,2.776l2.271,1.517l3.536,0.252l3.029-0.505
	l0.759-3.028l3.281,0.758l2.777-0.506l1.011-2.777l3.282,0.505l2.272,2.021l0.096,3.016l6.472-0.742l11.616,4.293h3.788l3.282,0.759
	l1.263,2.524l0.253,8.587l-0.759,3.282l-2.775,2.271v3.788l1.516,2.524l2.272,2.021l0.505,7.322l2.523,5.811l2.021,2.271
	l11.363,1.264l5.557-2.271l11.11,1.01l2.777,1.012l11.869,0.758l6.313,2.271h0.506l2.523,1.77l1.264,6.313l1.011,0.506l1.265-1.264
	l3.029-0.758l3.029-2.021l3.03-0.758l0.758-3.535l-1.011-3.03l-2.271-1.769l1.77-2.021l0.758-3.281l2.021-2.272l2.271-1.516
	l0.759-3.03l2.271-1.515l3.536,0.252l2.776-1.265h3.787l1.264-0.505l2.524,1.518l3.03,0.757l4.799-4.04v-7.576l0.758-3.028
	l2.271-1.518l-2.271-6.313l2.524-1.264l3.787,1.011l2.777-1.265l1.516-2.271l3.283-1.517l4.545-0.252l3.788-8.334l1.264-10.354
	l1.264-2.525v-3.788l2.021-5.557v-9.345l-2.523-2.271l-0.252-3.536l0.757-2.775l-8.08-5.811l0.253-3.534l3.282-0.759l3.03-2.271
	v-1.517l-0.76-3.028l0.506-3.536l2.271-1.517l1.011-3.281l0.253-3.788l1.012-3.029l2.021-2.525l0.252-3.788l2.272-2.271l3.028-0.758
	l-0.505-5.559l-1.769-3.028l4.293-3.788l-0.253-3.029l-1.01-3.283v-3.788l0.758-2.021v-7.575l-2.021-2.525l-1.012-0.253v-3.534
	l6.063-12.881l0.252-7.321l2.272-2.272l2.524-1.264l1.516-2.524l2.523-1.263l2.021-3.535l0.759-2.524l0.252-3.535l-1.517-2.271
	l-3.534-0.505l-1.012-2.778l-1.769-2.021l-3.788-1.264l-0.758-1.012l-0.252-6.313l2.775-6.565l3.029-0.757l2.021-1.77l2.777-1.263
	l3.788-3.788h3.787l1.517-2.272l-1.719-5.636l-1.433-0.795l-4.822-1.071l-1.25-1.25l-4.82-0.536l-1.069,1.607l-5.181-0.357
	l-2.144-0.714l-1.07-1.606l-3.216-2.321h-0.893l-2.321,3.75l-0.536,2.144l-1.25,2.143l-1.964,0.715l-2.5-0.893l-1.606-1.072
	l-4.104,1.786h-2.68l-1.786,1.071l-0.894,1.785l-4.286-1.25l-1.25-1.429l-1.964-0.893l-1.606,1.07l-1.25,1.606l-2.5,0.179
	l-0.714,1.965l-1.25,1.965l-1.43,1.25l-10.536,0.179l-1.784,0.893l-0.536,2.145l-1.25,1.964l-1.784,1.071l-1.25,1.606l-1.966,1.25
	l-1.25,1.964l-3.93,1.965H537.9l-1.607,1.071l-4.285-0.536l-2.5,0.536l-1.43,1.429l-1.964,6.25l-2.68,2.68l-1.784,1.07l-5.181,0.18
	l-2.319-0.536l-1.431-1.25l-2.319,0.356l-6.072,5.18l-2.5,0.535l-2.5-0.356l-2.855-1.429l-0.355-0.536l-1.606-1.429l-1.069,4.285
	l-0.896,1.785l-1.429,1.25l-0.714,1.605l-1.07-0.538v-5.355l-1.604-1.431l-4.646-0.893l-1.07-1.607l-2.319-0.714l-1.607,1.071
	l-3.75,7.5l0.357,6.606l-1.25,1.604l-4.465,1.25l-3.216,3.215l-3.75,9.821l-6.43,6.964l-4.284,1.429l-2.144,0.181l-1.786-1.606
	l-2.5-0.535h-5.356l-2.144,0.535l-9.009-3.302l-3.869,2.313h-7.576l-0.252,3.788l0.505,0.253l1.77,2.021l1.264,2.775l-0.252,3.536
	l-1.265,2.525l-2.021,1.768l-1.516,2.272l1.01,5.556l-0.505,2.272l0.505,2.775l-1.263,9.599l-1.266,2.523l-0.505,3.283l-1.515,2.524
	l1.768,2.021l-1.263,2.525l-0.253,2.271l7.323,7.829l2.523,1.265h3.283l2.522-1.265l2.021,0.505v3.283l-1.263,2.524l-2.021,1.769
	l-5.808,1.77L416.41,537.843L416.41,537.843z"/>
<path id="path2907" sodipodi:nodetypes="csssssssssssssssssssssssssssssssssssssssssssssssssssssssscssssssssssssssssssssssssssssssssssssssssssssssscsssssssssssssssssssssssssssssscsssssssssscsssssssssssssssssssssscsssssssssssssscssssssssssssssscssssssssssssssssssscssssscssssssssssssssssssssssscsssssssssssssscsssssssssscssssssssssssssscssssssscssssssc" fill="none" stroke="#B7B7B7" stroke-miterlimit="10" d="
	M268.74,691.135l-0.2-1.652l-1.625-0.625h-3.781l-0.406-1.5l0.156-5.063l3-6.938l1.406,0.125l3.655-1.53l1.281-5.031l1-1.655
	l-0.25-3.529l-0.625-0.875l-1.406,1.25l-1.25-1l-0.78-1.531l-0.125-1.875l1.03-3.156v-1.655l-1.53-0.375l0.125-1.75l2.155-4.188
	h-1.655l-1.625-0.875l-0.375-2.031l0.75-1.5v-2.03l0.875-1.125l0.5-1.779l0.78-1.375v-1.906l-1.405-0.625l-5.688,0.375l-1.75-0.625
	l-0.875-1.531l0.375-9.094l1.566-0.873l3.854,0.13l5.81,2.272h3.788l1.516,2.271h3.788l2.777-1.263l6.313,2.271l3.788,0.505
	L295.95,628l1.769-2.271l0.251-3.536l-0.759-3.03l2.021-2.021h3.282v3.283l3.535,1.264l1.011-2.776l4.799-2.778l0.758-3.534
	l1.77-2.021l6.313-2.524l2.778,1.517l1.768-6.063l1.517-2.522l4.041,0.253l2.523-1.265l1.012-3.029l5.81-1.771l1.011-2.774
	l2.271-1.771l1.769-2.271l2.777,1.264l2.271,1.769l2.778,1.013l5.808-2.273h7.576l5.306-2.776l5.051,1.265l1.517,5.051l4.293,3.535
	l1.517,2.271l2.523,1.518l3.536,0.253l2.271,1.768l3.028,1.011l13.892,1.518l2.776-1.518l1.77-2.021l5.557,0.253l-0.505,3.788
	l2.021,3.283l2.021-2.021l3.281-0.759l2.021,2.021l3.03-0.255l2.777-1.01l3.534,0.253l2.777,1.517l3.535,0.505l1.263-2.525v-3.534
	l-0.757-3.028l-1.517-2.273l1.643-2.396l6.438-0.634l11.616,4.293h3.788l3.282,0.76l1.263,2.522l0.254,8.588l-0.76,3.281
	l-2.775,2.273v3.787l1.516,2.523l2.272,2.021l0.505,7.321l2.523,5.811l2.021,2.271l11.363,1.265l5.558-2.272l11.11,1.011
	l2.776,1.013l8.539,0.221l-1.216,0.284l-2.525,1.263l-6.563,1.011l-2.273,1.518l-6.313,1.263l-4.293,3.535l-1.518,2.523
	l-2.775,1.265l-2.272,1.768l-3.282,0.506l-2.271,2.524l-1.771,4.294l-1.768,1.516l-1.012,2.777l-1.77,2.021l-0.252,3.535
	l-2.776,1.012h-3.788l-2.021,2.021l-1.516,2.525l-4.041,4.041l-7.07,0.505l-2.271,5.81l-5.053,2.524l-1.01,2.775l-6.565,0.506
	l-1.264,6.565l-8.081-0.253l-2.271-2.021l-7.828-0.254l-1.264,11.617l1.264,2.776l2.021,2.523v3.788l-2.021,1.77l-2.524-1.264
	l-6.313,1.264l-3.029-1.01l-3.536-2.525l-3.788,5.557l-3.028,0.759l-3.283-0.253l-4.293-3.029l-6.063-1.77l-1.011-2.523l3.282-4.799
	l-0.758-2.524l-2.021-3.282l-0.506-2.523l1.263-2.525l-1.01-2.777l-0.253-3.533l1.516-2.778l2.271-1.77l0.254-3.028l-1.011-2.778
	l-3.536-0.252l-3.787-1.263l-1.011-2.273l2.523-1.768l-0.253-3.283l-7.828-0.505v-3.283l2.525-1.769l1.515-2.271l-2.021-1.768
	l-2.271,1.263l-3.029-0.758l-2.523-2.021l-3.283-1.01l-1.769-2.272l-3.788-1.011l-0.253,0.505l-2.271,1.519l-3.283,0.252
	l-2.021-2.021l-3.282,0.506l-5.304,2.525h-7.576l-6.063,3.535l-0.253,0.253l-1.517,2.525l-6.313-0.255l0.253,3.029l-7.07,0.505
	l-0.506,3.283l-1.264,2.525l-1.769,1.516l-2.524-1.516l-2.021,2.021l1.01,2.778l-0.505,1.769l-9.596,4.798l-0.758,3.029l-3.283,4.8
	l-3.03,1.265l-4.546-1.265l-1.263-2.021v2.761l-2.525-0.253l-2.271-2.021l-1.011-3.029l-3.788-0.758L268.74,691.135L268.74,691.135z
	"/>
<path id="path2856" sodipodi:nodetypes="cssscsssssssscsssssssssssssssssssssssssssssssssssssssscssssssssssssssssssssssssssssssssscssscssssssssssssssssssssssssssscsssssssssssssssssssssssssssssssssssssssssssssssscsssssssssssssssssssscssssssssssssssssssssssssssssssscssssssssssssssssssssssssssssssssssssssssssssssssssssssscsssssssssssssssssssssssssccsssssssssscssssscssssssssssscssscsssssssscssssssssssssssssscssssscssssssscscssssssssssssssssssssssscsssssssssssssssssssssscssssssssssscsssssssssssscsssssscsssssssssscssssssscsssssscsssssssssssssssssssssssssssssscssssssscsssscssssssssssssc" fill="none" stroke="#B7B7B7" stroke-miterlimit="10" d="
	M673.723,655.014l-2.243,6.812v1.904l-1.406,0.875l-1.75,6.971l-0.125,5.779l-1.78,3.813l0.125,5.531l-1.125,5.563l-1.53,1.03
	h-1.875l-1.531,0.375l-1.25,1l-1.125,3.156l-0.78,1.25l-1.375,1.281l-0.625,1.375l-0.125,1.654l-1.156,1.125l-0.375,4.063l-1,1.25
	l-2.404,9.719l0.875,1.125l0.529,1.406l-0.779,1.25l-1.5,1.155l-1.405-0.25l-0.875-1.405l-1.125,0.5l1,1.03l0.125,1.375l-2.97,2.03
	l0.313,7.938l1.906,3.781l0.375,1.779l-0.25,3.655l-1.406,1.406l0.125,5.405l3.031,3.155l-0.875,2.905l-3.656,0.125l-1.25,1.031
	l-2.155,4.154l-1.28,0.625l-3.78,0.125l-0.875,1.156l-1.375,0.75v1.905l-0.781,1.25v1.906l-2,2.875l-1.405,4.938l-1,1.375
	l-0.875,5.688l-1.155,1.654l-0.25,1.625l-1.125,0.781l-1.03,1.125l-1,2.905l-1,1.625l-1.281,5.063l-0.75,0.875l-0.5,1.53v1.875
	l-3.279,3.438l-0.5,1.375l-1.781,0.125l-1.125,1l-0.875,1.529l-0.655,0.25l-0.25,3.156l-3.406,7.438l-2.155,2.03l-2.125,4.405
	l-0.625,3.155l-1.155,1.031l-1.5,0.375l-2.405,2.529l-0.125,3.031l-3.156-0.781l-1.404,0.531l-3.406,0.5l-5.813,4.78l-0.75,1.156
	l-0.25,1.625l0.625,1.28l1.781,2l0.375,1.28h-1.906l-0.75,1.25l0.625,1.25l1.281,0.655l1,1.125l-0.375,1.78l1.125,2.75l-0.5,1.655
	l-2.125,1.906l-1.656,0.25l-1.375,1.375l-1.279,7.969l-2.156,2l-2.75,1.156l-1.155,1l-0.75,1.25l-2.531,2.03l-0.75,1.125
	l-1.125,0.78l-1.53,0.625l-3.779,4.531l-2.656,1.53l-1.531,0.375l-1,0.875l-1.375,0.625l-1.904,0.28l-1,1l-1.78,0.125l-0.875,1.125
	l-2.406,1.405l-1,1l-2.655,1.25l-0.375,1.53l-1,1.25l-1.781,0.125l-1.125,1.031l-4.063,1.75l-1.125,1.03l-1.655,2.625l-0.875,3.155
	l-1.125,1.281l-0.25,1.625l-0.906,1.155l-0.125,1.75l-0.75,1.53l0.125,1.75l-0.188,0.595l-0.188,5.22l-0.75,1.469l-0.063,1.375
	l-1.969,2.845l-3.531,3.155l-0.875,1.281l-1.655,0.875l-0.75,1.25l-0.25,1.655l-0.875,1.25l-0.125,1.78l-0.655,1.625v1.905
	l-1.25,0.75v2.53l-2.905,6.813v1.905l-0.875,0.875v3.781l-2.156,4.188l0.125,2.125l-1.25,1.655l-0.53,3.53l-0.875,1.125l-0.25,3.531
	l-1,1.28l-0.375,1.75l-1.906,2.53l-0.5,1.406l-0.875,1.125l-3.563,10.094l-0.875,1.281l-0.5,5.03l-2.53,2.529l-2.906,9.096v3.529
	l-0.625,1.406l0.25,5.405l1.281,1.656v7.813l0.875,3.155l0.089,4.647l-3.503,1.173l-2.021,1.77l-3.282,1.263l-2.777-4.798
	l-3.028-0.759h-4.041l-1.265-2.776l-2.775-1.012l-2.272-1.516l-4.294,0.252l-0.505-2.271l0.759-3.282l1.77-1.011l-2.778-1.012
	l-1.01-2.524l-4.799-2.775l1.769-2.272l2.525-1.264l-0.255-7.576l-2.523-1.516l-1.263-2.524h-2.777l-3.788-4.041l-3.535-1.769
	l4.799-14.646l6.564-1.011l1.264-2.777l-0.759-3.283l-2.776-2.021l-2.523-5.305l-4.041-2.524l-0.252-3.029l-1.012-3.029l4.294-3.283
	v-3.788l-4.04-8.08l-0.507-4.294l-1.77-1.011l-1.01-3.03l0.505-3.534l2.778-5.052l-1.265-2.776l1.517-2.271l1.011-2.777
	l-0.253-3.534l1.011-2.524l2.021-2.021l0.759-3.03l1.769-2.021l0.253-1.01l4.041-5.558l0.252-3.535l1.77-2.271l0.253-2.523
	l3.282,0.505l3.534-1.77l6.063-1.263l3.031-6.313l11.109-0.507l2.021-2.271l0.252-3.535l1.77-2.021l0.505-9.852l2.021-2.021
	l-1.011-2.272v-3.788l-1.012-3.28l-2.523-1.266l-3.283-0.252l-2.777-2.523l-0.757-1.518l-0.759-3.03v-3.788l0.452-0.972l0.714-6.786
	l-2.854-3.928l-5.356-0.357l-2.856-8.569l0.356-5l-1.429-1.431l-1.786-3.929v-5.355l1.071-4.285l10-12.856l0.715-1.786v-3.928
	l6.429-4.645l-1.429-4.285l-2.5-2.5l1.785-4.285l3.57-3.93l-1.07-22.5l3.215-2.145l2.143-5l3.571-1.786l-1.071-3.928v-3.93
	l1.43-3.93l-0.355-1.785l-1.071-0.715l2.856-3.57l3.57-1.43l6.786-5.716l5-6.428h3.93l7.854-2.145l2.857-2.855l8.371-3.573
	l0.915,2.523l3.787,4.798l-0.252,3.788l3.788,9.093l0.758,0.757l1.264,2.524h4.294l5.303,3.283l3.536,0.253l3.535,4.04l1.263,2.523
	l2.777,1.265h1.011l0.505-1.265l5.305-2.523l5.053,3.283l1.769,2.271l1.263,2.776v4.293l3.788,5.305v2.776l2.524,1.517l3.03,1.01
	l1.768,2.272l1.013,0.759l4.545,0.252l2.021,1.769l1.769,3.282l0.254,3.536l2.021,0.252l2.525-1.769l9.849-1.517l1.012-2.776
	v-11.363l-0.759-3.535l1.011-2.776l4.293-3.535l3.03-5.811l0.252-2.776l1.518-2.777v-3.787l2.271-1.77l1.518-6.063l1.264-2.523
	l2.271-1.518l1.769-2.271l0.505-8.839l12.122-18.438v-0.253l-3.283-1.768l-2.021-2.273l-0.506-4.546l0.253-0.252l7.321-13.132
	l4.294-3.536l2.777-1.01h3.788l3.029,0.758l2.271,1.769L673.723,655.014L673.723,655.014z"/>
<path id="path2905" sodipodi:nodetypes="cssssscssssssssssssssssssssssscsssssssssssssscsssssssssscssssssssssssssscssssssscsssssscsssssssssssssssssssssssssscssssssssssssssssssscsssscssssssssssssssssssssssssssssssssscsscssssssssssssssssssssssssscsssssssssssssscscssssssssscsssssssssssssssscssssssssssssssssssssssscssssssscsssssssssc" fill="none" stroke="#B7B7B7" stroke-miterlimit="10" d="
	M419.409,720.93l-0.979,0.763l-2.524-1.265l-6.313,1.265l-3.03-1.012l-3.535-2.523l-3.788,5.556l-3.029,0.759l-3.282-0.253
	l-4.293-3.028l-6.063-1.771l-1.012-2.522l3.283-4.8l-0.759-2.523l-2.021-3.283l-0.507-2.524l1.264-2.523l-1.011-2.778l-0.253-3.535
	l1.517-2.775l2.271-1.771l0.253-3.028l-1.01-2.777l-3.536-0.252l-3.788-1.264l-1.011-2.272l2.524-1.769l-0.253-3.282l-7.828-0.506
	v-3.282l2.524-1.771l1.516-2.271l-2.021-1.771l-2.271,1.266l-3.029-0.76l-2.524-2.021l-3.282-1.01l-1.769-2.273l-3.788-1.01
	l-0.253,0.505l-2.271,1.517l-3.283,0.252l-2.021-2.021l-3.281,0.506l-5.305,2.525h-7.576l-6.06,3.533l-0.253,0.253l-1.517,2.522
	l-6.313-0.253l0.252,3.03l-7.07,0.505l-0.505,3.283l-1.264,2.523l-1.77,1.518l-2.523-1.518l-2.021,2.021l1.011,2.778l-0.505,1.768
	l-9.597,4.798l-0.758,3.03l-3.283,4.799l-3.03,1.264l-4.546-1.264l-1.263-2.021v2.775l-2.525-0.253l-2.271-2.021l-1.011-3.03
	l-3.788-0.758l-2.753-1.794l-0.786-0.973l-7.188-1.279l-3.905,6.813l0.625,1.281l1,0.125l-0.625,1.875l-1.281,0.906l-0.25,1.75
	l2.781,1.654l1.155,0.25l1.625-0.5l-2.155,3.155l-3.406,1.25l-0.875,1.281l0.25,1.75l0.75,1.53l-2.5,2.375l-0.406,1.655l-0.75,1.375
	l-2.406-0.625l-0.625,1.28l-0.75,3.406l0.125,3.779l-4.938,9.221l-0.5,3.529l-1.5,2.531l1.125-1.406l1.531-0.625l1.5-0.125
	l0.625,7.971l1.155,0.875l1.5,0.625l-0.875,5.313l-3.28,1.375h-0.25l-3.531,1.155l-3.156,2.906l-3.281,1.5l-0.25,3.53l0.25,0.5
	l0.25,3.688l0.75,0.875h1.906l-0.125,5.938l0.75,2.406l2.125,2.5l0.281,0.78l1.875-0.655l1.281-0.875l1.122-1.19l1.515-2.848
	l5.557-6.313l3.03-2.021l19.95-1.769l1.01,1.011l0.758,3.03l6.818-0.253l0.506,2.776l3.03,0.506l2.524-1.264l6.313,2.777
	l1.516,2.523l-2.021,2.525l-3.283,1.263l-5.304,7.576l3.788,2.524l7.322,9.345l-3.282,8.333H291.4l-2.778,1.264l-0.252,3.535
	l-2.778,0.505l-4.451,8.255l8.492,3.109l2.525-1.264l1.768,1.011l3.789,4.041h3.534l0.505-0.759l2.777,1.264l2.021,0.253
	l1.517-2.021L326,830.525l3.788-0.253l6.313-5.811l1.77-2.523l3.029-1.012l3.534-0.253l2.524,1.518h3.03l1.516-6.313l1.517-0.758
	l1.011-1.264l0.506-3.283l3.787-8.839l3.029-0.758l1.012-3.03l0.254-3.535l5.557-0.253l0.252-3.534l9.092-6.565l3.535-5.557
	l10.354-7.071l2.271-2.523l3.788-2.271l0.505-3.029l0.253-0.253l1.264-0.759l0.506-3.534l1.264-2.524l0.253-3.534l5.557-6.817
	l1.769-0.253l8.081-10.858l0.253-3.788l4.04-5.051l0.759-3.03l-2.271-1.769L419.409,720.93L419.409,720.93z"/>
<path id="path2891" sodipodi:nodetypes="cssssssssscssssssscssssssssssssssssssssssscsssssssssssssssscssssssssscscsscscsssssssssssssssssssssssssssssssssssssssssssssccssssssscssssscsssccssscscsscssscsssssscsssssssssscsssssssssssscsssssssssscsssssssssscsssssssssssscssssssssscssscssssssssscsssssssssssssssssssssssccsssssssssssssssssssssscssssssssssscsssssssssssscsscssssssssssssssssscsssscsscsssssssssssssscssssssssssssssscsssssssssssssssssssc" fill="none" stroke="#B7B7B7" stroke-miterlimit="10" d="
	M419.359,721.002l0.336,0.438l2.271,1.768l-0.759,3.03l-4.04,5.051l-0.253,3.788l-8.081,10.857l-1.769,0.255l-5.557,6.816
	l-0.253,3.534l-1.265,2.525l-0.505,3.533l-1.264,0.76l-0.253,0.253l-0.505,3.028l-16.415,11.869l-3.535,5.558l-9.092,6.564
	l-0.252,3.534l-5.558,0.254l-0.253,3.534l-1.012,3.031l-3.029,0.757l-3.788,8.839l-0.505,3.283l-1.011,1.263l-1.517,0.759
	l-1.516,6.313h-3.03l-2.524-1.518l-3.535,0.254l-3.029,1.011l-8.081,8.334l-3.787,0.253l-10.104-3.283l-7.828-0.758l-1.517,2.021
	l-2.021-0.253l-2.777-1.264l-0.505,0.758h-3.534l-3.789-4.041l-1.768-1.01l-2.525,1.264l-8.447-3.188l-1.653,0.662l-3.23,3.006
	l1.203,1.404l0.75,4.188l3.031,6.313v1.875h0.655l0.25-1.625l0.625-1.28l1.906-0.125l2.125,5.063l-0.25,1.625l-1.875,0.25
	l-1.406-0.875l-0.75-1.25l-0.375,0.875l0.125,1.78l0.75,2.25l0.125,1.781l1.781,3.404v1.375l8.938,21.096l0.155,1.779l1.5,3.406
	l1.375,1.75l3.104,6.602l2.854-2.932l8.215-2.144l3.215,2.144l2.145-1.429l3.93-0.715l1.07-4.285l1.43-1.786l2.144,5l-0.715,4.646
	l-2.145,3.215l-1.07,4.285l-2.855,1.784l2.145,3.931l4.645,4.285l-1.786,3.569v1.071l4.645,2.5l-1.786,7.5l-1.429,2.855l-3.215,1.07
	l0.715,1.786l2.856,0.356v1.784l-4.645,1.43v3.57l4.645-0.355l4.644,0.714l5-0.355l2.5,1.43l3.215,3.929l1.785,3.571v5l-8.93,8.57
	l-1.468,3.313l6.839,5.558l1.75,0.75l2.78,2.53l5.438,1.625l0.25-0.625l-0.875-14.53l0.875-2.904l0.875-1.125l1.846,0.439
	l2.462-2.206l2.021-5.81l0.252-3.535l1.77-6.063v-3.787l-3.535-4.294l0.253-18.184l2.021-6.062l1.77-2.272l1.769-6.817l-0.252-4.547
	l0.758-1.264l-0.253-15.15l1.264-2.776l0.505-3.283l1.265-2.523l1.517-9.851l2.524-1.263l1.769,0.758l4.545,0.252l1.518,2.272h3.787
	l2.777-1.264l6.063,1.516l3.534-0.252l2.272-1.771l2.524-3.281l0.252-1.264l4.041-3.282l1.263-0.506l6.566-4.546l3.533-0.253
	l2.778-2.021l3.029-0.757l3.029,1.264l1.769,2.021v3.788l2.778,1.264h2.775l1.012-1.011l3.029-0.758l3.282-4.798l3.03-0.759h3.788
	l8.586,5.305l6.313,7.576l2.777,1.515l2.776-1.515l1.77-2.273l5.052-2.524l1.517-2.271h3.282l1.011,0.252l2.523,1.264l0.253,1.265
	l2.271-0.759l4.496,3.033l0.711-6.751l-2.855-3.929l-5.355-0.356l-2.856-8.569l0.356-5l-1.43-1.431l-1.786-3.929v-5.356l1.071-4.284
	l10-12.856l0.715-1.786v-3.929l6.43-4.645l-1.43-4.284l-2.5-2.5l1.785-4.286l3.57-3.93l-1.07-22.5l3.215-2.144l2.144-5l3.57-1.786
	l-1.07-3.929v-3.93l1.43-3.93l-0.355-1.786l-1.071-0.714l2.856-3.57l3.57-1.43l6.785-5.715l5-6.429h3.93l7.855-2.146l2.856-2.854
	l8.494-3.563l0.792-3.042l-0.252-3.535L524.752,678.5l-3.029-0.758l1.011-3.535l1.77-2.524l3.281-1.011l-0.505-2.271l1.517-2.271
	l3.282-0.507l1.517-2.271v-7.07l-2.271-1.517l-0.6-1.747l-0.916-0.271l-1.265-6.313l-2.523-1.77h-0.505l-9.853-2.777l-1.01,0.254
	l-2.524,1.264l-6.563,1.01l-2.273,1.518l-6.313,1.264l-4.293,3.534l-1.518,2.524l-2.775,1.264l-2.273,1.769l-3.281,0.505
	l-2.271,2.525l-1.77,4.294l-1.769,1.515l-1.011,2.778l-1.771,2.021l-0.252,3.534l-2.776,1.011h-3.788l-2.021,2.021l-1.515,2.523
	l-4.041,4.041l-7.071,0.506l-2.271,5.81l-5.053,2.524l-1.01,2.776l-6.564,0.505l-1.265,6.565l-8.081-0.252l-2.271-2.021
	l-7.828-0.253l-1.264,11.617l1.264,2.776l2.021,2.523v3.788L419.359,721.002L419.359,721.002z"/>
<path id="path2887" sodipodi:nodetypes="cssssssssssscssssssssssssscsssssssssssssssssscsssssscssssssscssssscsssccssscscsscssscssssssc" fill="none" stroke="#B7B7B7" stroke-miterlimit="10" d="
	M331.796,955.424l-1.507-0.757l-3.904-3.28l-0.625-1.405l-2.28-2.53l-1.375-0.75l-3.313-3.531l-0.625-0.125l-3.279,0.125
	l-1.625-0.375v-0.625l0.5-0.655l2.654-0.5l-2.779-4.529l-1-1.031l-0.655-1.375l-1-1.125l-1.125-0.781l-1.281-1.75l-0.625-1.405
	l-2.656-2.625l-1.25-3.438l-1.529-0.75l-0.75-1.125l1.125-0.75l0.125-1.906l-0.875-1v-1.905l-0.875-1.375l-2.78-2.529l-0.5-1.781
	l0.5-1.625l0.25-4.188l4.03-3.905l-2.5-6.063l3.904,3.906l2.125-2.5l-4.529-5.563l-1.709-3.773l2.854-2.932l8.214-2.144l3.214,2.144
	l2.146-1.428l3.929-0.716l1.071-4.284l1.429-1.786l2.145,5l-0.715,4.645l-2.145,3.215l-1.071,4.285l-2.855,1.785l2.145,3.93
	l4.645,4.285l-1.785,3.569v1.072l4.644,2.5l-1.786,7.5l-1.429,2.855l-3.214,1.069l0.714,1.786l2.856,0.356v1.785l-4.645,1.429v3.571
	l4.645-0.356l4.644,0.715l5-0.355l2.5,1.429l3.215,3.93l1.785,3.57v5l-8.929,8.571L331.796,955.424L331.796,955.424z"/>
<path id="path2899" sodipodi:nodetypes="cssssscssssssssssscssssssssssssssssssssssssssssscsscsssssssssssssscsssssssssssssssssssssssssc" fill="none" stroke="#B7B7B7" stroke-miterlimit="10" d="
	M245.366,777.676l0.329,1.586l-0.25,1.78l4.656,2.781l0.906,0.25l1.75,1.625l3.156,1.656l3.938,4.154l1.5,0.75l5.313,4.938
	l0.125,0.5l3.405,3.281l2.406,3.654l1.625-0.375l2.281-2.125l1.375-0.779l-1,2.154l-0.875,1.125v1.28l3.281,0.875l-1.656,1.406
	l-1.875-0.125l-1.031-1.406l-0.875-0.5l0.75,1.906l1.156,1.5l0.5,1.655l-0.5,9.595l-0.531,1.375l1.017,2.029l1.271-0.767
	l2.021-2.021l1.541-0.567l4.52-8.271l2.778-0.506l0.252-3.534l2.777-1.265h3.788l3.282-8.333l-7.323-9.345l-3.787-2.524l5.304-7.575
	l3.283-1.264l2.021-2.523l-1.517-2.525l-6.313-2.777l-2.524,1.265l-3.03-0.506l-0.506-2.777l-6.818,0.253l-0.758-3.029l-1.01-1.012
	l-19.95,1.77l-3.03,2.021l-5.557,6.313L245.366,777.676L245.366,777.676z"/>
</svg>
